<?xml version="1.0" standalone="no"?>
<!DOCTYPE svg PUBLIC "-//W3C//DTD SVG 1.1//EN" "http://www.w3.org/Graphics/SVG/1.1/DTD/svg11.dtd" >
<!--
2013-9-30: Created.
-->
<svg>
<metadata>
Created by iconfont
</metadata>
<defs>

<font id="iconfont" horiz-adv-x="1024" >
  <font-face
    font-family="iconfont"
    font-weight="500"
    font-stretch="normal"
    units-per-em="1024"
    ascent="896"
    descent="-128"
  />
    <missing-glyph />
    
    <glyph glyph-name="weixin-1" unicode="&#58881;" d="M498.816 550.944c26.336 0 43.936 17.632 43.936 43.904 0 26.56-17.568 43.744-43.936 43.744s-52.832-17.184-52.832-43.744c0.032-26.272 26.496-43.904 52.832-43.904zM253.088 638.592c-26.336 0-52.96-17.184-52.96-43.744 0-26.272 26.624-43.904 52.96-43.904 26.24 0 43.808 17.632 43.808 43.904-0.032 26.56-17.568 43.744-43.808 43.744zM1024 269.888c0 138.88-128.832 257.216-286.976 269.536 0.224 1.728 0.32 3.52-0.064 5.312-31.712 147.84-190.688 259.296-369.824 259.296-202.432 0-367.136-141.152-367.136-314.656 0-93.088 47.52-176.96 137.568-243.104l-31.392-94.368c-2.016-6.144-0.192-12.896 4.704-17.152 2.976-2.56 6.72-3.904 10.496-3.904 2.432 0 4.896 0.576 7.168 1.696l117.856 58.976 14.528-2.944c36.288-7.456 67.616-13.92 106.208-13.92 11.36 0 22.88 0.512 34.176 1.472 4.576 0.384 8.448 2.688 11.072 6.016 42.496-106.336 159.616-183.104 297.44-183.104 35.296 0 71.040 8.512 103.104 16.544l90.848-49.664c2.4-1.312 5.056-1.984 7.68-1.984 3.584 0 7.168 1.216 10.048 3.552 5.056 4.096 7.136 10.848 5.248 17.024l-23.2 77.152c77.792 61.472 120.448 135.008 120.448 208.224zM398.592 208.032c-10.4-0.896-20.96-1.344-31.424-1.344-35.328 0-65.216 6.112-99.776 13.248l-20.096 4.064c-3.456 0.736-7.104 0.256-10.272-1.376l-88.288-44.192 22.944 68.928c2.24 6.752-0.224 14.112-6.016 18.176-88.704 61.824-133.664 137.152-133.664 223.84 0 155.84 150.336 282.656 335.136 282.656 163.36 0 308-99.392 337.856-231.584-171.296-2.24-309.888-122.656-309.888-270.56 0-21.504 3.264-42.336 8.768-62.432-1.664 0.416-3.424 0.736-5.28 0.576zM875.456 80.448c-5.344-4.032-7.616-10.976-5.696-17.376l15.136-50.336-62.112 33.984c-2.368 1.312-5.024 1.984-7.68 1.984-1.312 0-2.624-0.16-3.904-0.512-33.312-8.416-67.776-17.088-101.344-17.088-155.904 0-282.72 107.136-282.72 238.816 0 131.68 126.816 238.784 282.72 238.784 152.928 0 282.144-109.344 282.144-238.784 0-65.664-41.376-132.96-116.544-189.472zM612.992 384.032c-17.568 0-35.136-17.696-35.136-35.232 0-17.664 17.568-35.104 35.136-35.104 26.4 0 43.84 17.44 43.84 35.104 0 17.568-17.44 35.232-43.84 35.232zM806.016 384.032c-17.312 0-34.88-17.696-34.88-35.232 0-17.664 17.568-35.104 34.88-35.104 26.304 0 44.064 17.44 44.064 35.104 0 17.568-17.728 35.232-44.064 35.232z"  horiz-adv-x="1025" />

    
    <glyph glyph-name="qq1" unicode="&#58982;" d="M711.36-128c-5.76 0-11.84 0-17.92 0.32-14.4 0.96-126.08 10.88-174.72 61.44h-12.48c-48.96-50.56-160.64-60.48-173.76-61.44-7.36-0.32-13.44-0.32-19.2-0.32-76.8 0-130.88 16-160.64 47.36a73.6 73.6 0 0 0-22.4 48.64 115.52 115.52 0 0 0 63.68 109.44 595.392 595.392 0 0 0-40.96 70.72c-25.6-33.28-47.36-48.64-67.84-48.64a39.424 39.424 0 0 0-30.08 13.44c-24.64 26.56-23.36 89.6-22.08 108.48a7.968 7.968 0 0 0 0.32 2.56 397.184 397.184 0 0 0 108.48 202.24c-6.72 80.32 18.24 115.84 35.2 130.56C193.28 886.4 477.44 896 510.08 896h5.44c32.64-0.32 315.84-11.2 332.16-339.2 16.96-14.72 42.24-50.24 35.52-130.56A399.616 399.616 0 0 0 991.68 224c0-0.96 0.32-1.92 0.32-2.88 0.96-18.56 2.56-81.6-22.4-108.16a39.264 39.264 0 0 0-29.76-13.44c-20.8 0-42.24 15.36-68.16 48.64a595.392 595.392 0 0 0-40.96-70.72 115.744 115.744 0 0 0 64-109.44 76.992 76.992 0 0 0-22.4-48.64c-29.76-31.36-84.16-47.36-160.96-47.36z m-215.68 108.8h33.6a23.36 23.36 0 0 0 18.56-9.6c25.92-35.52 117.76-49.92 147.84-52.16 4.8 0 10.24-0.32 15.68-0.32 133.12 0 137.28 50.56 137.28 50.88 5.12 54.08-59.52 75.84-60.16 76.16a23.264 23.264 0 0 0-15.04 15.36 24.416 24.416 0 0 0 3.84 21.44 523.2 523.2 0 0 1 68.48 121.28 23.584 23.584 0 0 0 19.2 14.72 22.72 22.72 0 0 0 21.76-10.56 174.56 174.56 0 0 1 51.2-60.8 183.936 183.936 0 0 1 8 70.08 360.256 360.256 0 0 1-102.08 182.08 23.52 23.52 0 0 0-7.68 20.48c9.92 85.44-20.48 103.04-20.8 103.04a22.144 22.144 0 0 0-13.44 20.48c-8.32 289.6-240 305.6-286.4 305.92h-5.44c-28.48 0-278.72-8.64-287.36-305.92a22.976 22.976 0 0 0-14.4-20.8c0.32 0-29.44-17.92-19.52-102.72a24.448 24.448 0 0 0-7.68-20.48 357.088 357.088 0 0 1-102.4-182.08 41.184 41.184 0 1 1 59.2-9.28 23.008 23.008 0 0 0 21.76 10.56 23.584 23.584 0 0 0 19.2-14.72 552.64 552.64 0 0 1 68.48-121.28 23.456 23.456 0 0 0 3.84-21.44 22.208 22.208 0 0 0-14.72-15.36c-2.56-0.96-65.6-22.72-60.48-73.92a9.856 9.856 0 0 0 0.32-3.2s5.76-53.76 153.6-49.6c44.16 3.52 124.16 20.8 147.2 52.16a22.912 22.912 0 0 0 18.56 9.6z"  horiz-adv-x="1024" />

    
    <glyph glyph-name="kefu1" unicode="&#58882;" d="M919.43822222 326.65599999999995v29.01333333c2.27555555 132.55111111-36.63644445 244.05333333-113.32266667 323.12888889-36.63644445 37.77422222-80.78222222 66.21866667-131.98222222 86.016-8.192 71.45244445-84.87822222 127.88622222-178.40355555 127.88622223-93.52533333 0-170.89422222-56.32-178.40355556-127.88622223-51.2-19.79733333-95.34577778-48.24177778-131.98222222-86.016-76.68622222-79.07555555-115.712-190.00888889-113.32266667-322.56v-35.49866667c-19.79733333-20.36622222-35.49866667-50.51733333-23.77955555-93.52533333 8.76088889-31.97155555 31.97155555-55.18222222 60.416-65.64977777 14.56355555-9.32977778 31.40266667-14.56355555 49.94844444-14.56355556 36.63644445-160.42666667 168.50488889-269.65333333 341.21955556-269.65333334 172.60088889 0 304.58311111 109.22666667 341.21955555 270.22222223 1.13777778 0 2.27555555-0.56888889 3.52711112-0.56888889 22.64177778 0 43.57688889 8.192 60.416 21.504 21.504 12.17422222 38.34311111 33.10933333 45.28355555 59.27822222 12.17422222 46.64888889-8.192 78.62044445-30.83377778 98.87288889z m-101.14844444-87.72266667c0-21.504-1.70666667-41.87022222-4.66488889-61.55377778-56.32-90.68088889-149.39022222-149.95911111-264.98844444-162.70222222-8.76088889 11.60533333-26.16888889 19.22844445-46.53511112 19.22844445-29.01333333 0-52.33777778-15.70133333-52.33777778-35.49866667 0-19.22844445 23.21066667-35.49866667 52.33777778-35.49866666 26.16888889 0 47.104 12.74311111 51.76888889 29.696 37.20533333 4.096 72.704 13.312 106.38222223 26.73777777 47.67288889 19.22844445 89.54311111 47.67288889 124.928 83.74044445 5.80266667 5.80266667 11.03644445 11.60533333 16.27022222 17.97688888-41.87022222-128.56888889-154.05511111-211.05777778-299.91822222-211.05777777h-1.13777778c-187.73333333 0-318.464 135.39555555-318.464 328.93155555l-0.56888889 18.54577778c0 8.192 1.13777778 30.26488889 2.27555555 51.2 77.93777778 28.44444445 148.25244445 137.216 176.69688889 187.16444444 26.16888889-35.49866667 86.016-103.99288889 177.83466667-139.49155555 34.24711111-13.312 69.17688889-20.36622222 103.424-27.87555555 68.03911111-14.56355555 132.55111111-28.44444445 176.128-85.44711112l1.70666666-1.70666666-1.13777777-2.38933334z m0 0"  horiz-adv-x="1024" />

    
    <glyph glyph-name="youxiang1" unicode="&#58895;" d="M944.9 640.5c-4.5 22.5-18.45 36-41.85 39.6-0.45 0-0.9 0.45-1.35 0.45-0.45 0-0.9 0.45-1.35 0.45l-0.9 0.45H159.2c-11.25 0-21.6-1.35-31.5-4.05l-1.35-0.45c-27.9-8.55-46.8-33.75-46.8-61.65v-441.45c0-17.55 5.85-35.1 16.65-49.05 0.9-1.35 2.25-2.7 3.6-4.5l0.45-0.45 0.9-0.9c17.1-18.45 41.85-29.25 67.95-29.25h702c35.55 0 66.6 24.3 73.8 57.6l0.45 1.35v0.45c0.9 4.95 1.8 9.9 1.8 14.4V627.9c-0.9 3.6-1.35 7.65-2.25 12.6zM362.6 390.3L278 314.25c-48.6-43.65-97.2-86.85-145.8-130.95V577.95L362.6 390.3z m302.85 0.9c76.5 62.1 152.1 123.75 228.6 185.85V190.5l-95.85 84.15c-44.55 39.15-88.65 77.85-132.75 116.55zM301.4 266.55L402.65 357c17.1-13.95 33.75-27.45 50.4-40.95 9.45-7.65 18.9-15.3 27.9-22.95l12.15-9.9c13.05-10.8 25.2-10.8 38.7 0 30.6 24.75 61.2 49.95 92.7 75.15l55.8-49.05C744.2 253.05 807.65 197.25 872 141H161.9c46.8 42.3 93.15 83.7 139.5 125.55z m211.5 67.5c-79.2 64.35-157.95 128.7-237.15 193.5L151.1 629.25c54.45 1.8 292.95 3.15 495 3.15 117.45 0 199.35-0.45 232.2-1.35l-365.4-297z"  horiz-adv-x="1026" />

    
    <glyph glyph-name="dianhua" unicode="&#58883;" d="M682.25 430.738c0-16.695 11.115-27.811 27.81-27.811s27.812 11.116 27.812 27.811A167.395 167.395 0 0 1 570.96 597.65c-16.695 0-27.811-11.116-27.811-27.811s11.16-27.812 27.811-27.812a111.597 111.597 0 0 0 111.29-111.289z m111.289 0c0-16.695 11.115-27.811 27.81-27.811s27.812 11.116 27.812 27.811c0 152.984-125.217 278.201-278.2 278.201-16.696 0-27.812-11.16-27.812-27.855s11.16-27.811 27.811-27.811c122.405 0 222.579-100.174 222.579-222.535zM417.976 528.1c30.623 30.579 33.391 77.898 5.58 111.289L337.31 747.866c-27.811 36.16-80.666 41.74-116.869 13.928-2.768-2.812-5.536-2.812-5.536-5.58l-75.13-75.13c-72.318-72.318 30.623-267.041 217.042-453.417C543.15 41.29200000000003 735.06-58.879999999999995 807.378 10.669999999999959l75.13 75.13c33.392 33.391 33.392 86.246 0 116.825l-5.536 5.58-108.52 86.246c-33.348 27.81-80.623 25.043-111.246-5.58l-47.275-47.319c-50.087 30.623-94.593 64.014-133.564 102.941-38.927 38.971-72.275 83.478-102.898 133.565l44.507 50.043z m-38.927 75.13c8.348-11.16 8.348-27.855-2.812-36.203l-61.202-63.97a29.569 29.569 0 0 1-5.536-33.392 721.425 721.425 0 0 1 122.405-164.1 721.512 721.512 0 0 1 164.1-122.405 29.569 29.569 0 0 1 33.39 5.58l63.971 63.97c11.16 11.116 25.043 11.116 36.203 2.769l108.477-89.014s2.768 0 2.768-2.768a26.889 26.889 0 0 0 0-38.971l-75.13-75.13c-36.115-36.115-208.606 55.666-372.75 217.042-164.1 161.332-253.114 336.548-216.955 372.75l77.854 77.899c11.16 8.348 30.623 8.348 38.971-5.58l86.246-108.521z"  horiz-adv-x="1024" />

    
    <glyph glyph-name="landline" unicode="&#59042;" d="M989.42825805 498.08638092c-78.18813721-111.48665186-165.5080752-5.72869336-185.19512914 26.2112915-19.68220898 31.94095385-145.88788184 154.94507006-291.01801026 154.94507007-172.02068482 0-272.84840112-127.2056748-292.64204443-159.61852881-19.79267432-32.41866797-107.60001636-139.74833496-186.2290459-26.60567213-29.25005713 35.65220141-82.9352395 345.09660425 478.87109033 345.85338868 558.68229272-0.7451565 505.29846753-305.65660473 476.21313941-340.78554932z m-476.2131394 287.57808104c-510.93898242 0-447.70920777-238.72817944-425.66071509-266.04024828 37.90898877-46.96036303 71.57862818 7.16280469 106.4188125 53.19874732 25.39927441 33.58630591 140.74639893 160.79585668 319.24190259 160.79585668 150.28808423 0 294.20793896-128.10393238 317.47930225-156.88887231 30.86730835-38.19096606 77.34414331-98.44399072 105.8228811-52.43324195 20.54364478 27.84501562 83.00694507 261.36194459-423.30218335 261.36194459v0.00581396z m0-159.62434276c231.19425 0 399.06376392-356.10437769 399.06376391-532.08146558 0-157.271625-51.68324048-159.62918775-399.06376391-159.62918774-347.3533916 0-399.05407397 2.36725268-399.05407398 159.62918774 0 171.63890113 167.4925752 532.08146557 399.05407398 532.08146558z m0-638.4973711c301.0645415 0 345.85241967 1.97093408 345.85241968 134.08359521 0 119.8645752-145.48187329 451.19758667-345.85241968 451.19758668-200.68837646 0-345.84757471-333.52196924-345.8475747-451.19758668-0.00581396-132.1010332 44.80435107-134.08359521 345.8475747-134.08359521z m0 478.86915234c73.46429078 0 133.02254663-59.55825586 133.02254663-133.01673266 0-73.46622875-59.55825586-133.01673267-133.02254663-133.01673267-73.46719775 0-133.01867066 59.55050391-133.01867066 133.01673267 0 73.4584768 59.55147291 133.01673267 133.01867066 133.01673266z m0-212.82987305c44.08051245 0 79.81604736 35.72972094 79.81604737 79.81217139 0 44.07469848-35.72972094 79.8102334-79.81604737 79.8102334-44.07566748 0-79.81314039-35.73553491-79.81314038-79.8102334 0-44.08148145 35.73747291-79.81217139 79.81314038-79.81217139z m0 0"  horiz-adv-x="1024" />

    
    <glyph glyph-name="zuoji1" unicode="&#58887;" d="M537.344 708.89c211.942-0.026 295.091 0 412.851 0.153 17.331 0.026 29.133-5.888 35.815-20.352l0.716-3.225v-604.212l-0.716-3.25c-6.708-14.465-18.51-20.404-35.815-20.378-82.688 0.128-168.909 0.179-272.845 0.179H404.506c-1.434-39.399-25.012-70.58-61.082-80.999a88.934 88.934 0 0 0-25.754-3.737H132.66c-4.2 0-8.5 0.537-11.316 1.382-33.792 7.322-55.757 25.856-66.611 56.653a66.483 66.483 0 0 0-3.533 21.94V716.85a45.228 45.228 0 0 0 1.254 9.498c6.733 32 26.804 53.171 58.855 63.59a78.336 78.336 0 0 0 24.14 3.661h185.37c4.199 0 8.371-0.486 11.981-1.306 39.987-7.372 67.507-37.58 70.298-75.904 0.153-2.355 0.204-4.25 0.179-7.475l134.067-0.025zM96.102 383.59l0.026-7.68v-317.568c0-26.598 16.256-42.854 42.931-42.905h176.512c26.522 0 42.906 16.512 42.906 43.11v649.83c0 26.471-16.512 42.88-43.085 42.88l-52.966-0.025-35.277-0.026c-35.072 0-62.003 0.052-88.218 0.23-23.936 0.154-43.213-17.382-43.059-43.289 0.18-33.715 0.282-68.966 0.333-108.16 0.025-35.814 0.025-64.486-0.026-128.973l-0.077-87.424zM939.52 489.318h-14.669l-477.26 0.026c-3.533 0-7.092-0.051-10.573 0.333a21.094 21.094 0 0 0-18.816 19.072 20.582 20.582 0 0 0 16.102 21.939 51.456 51.456 0 0 0 11.776 1.024c159.77 0.051 319.462 0.051 479.206 0.051h14.234v126.72h-537.6v-550.349h537.6V489.318zM768.742 354.227c-17.715 0.64-31.513 12.57-31.59 28.775-0.026 16.588 13.517 28.697 31.462 28.902a1681.69 1681.69 0 0 0 42.522 0c17.715-0.282 30.771-11.93 31.027-28.365 0.256-16.537-12.313-28.493-30.054-29.286a174.797 174.797 0 0 0-7.603-0.154c-2.176-0.025-3.892 0-7.808 0.051l-6.759 0.052-6.041-0.052-4.352-0.05a206.848 206.848 0 0 0-10.804 0.127z m-201.19 57.703l6.656 0.025c7.296 0.051 10.547 0.051 14.694-0.051 17.306-0.486 30.055-11.904 30.49-28.058 0.435-16.69-12.211-29.056-29.952-29.568-15.846-0.46-30.9-0.46-45.389 0.052-17.305 0.537-29.824 12.902-29.491 29.235 0.256 16.153 13.03 27.801 30.234 28.288a313.958 313.958 0 0 0 15.897 0.102l6.861-0.025z m245.043-145.792c16.282-0.384 29.005-12.007 29.517-27.29a28.34 28.34 0 0 0-27.469-29.978c-16.025-0.716-32.537-0.716-49.459-0.05a28.928 28.928 0 0 0-28.006 29.72c0.665 15.514 13.312 27.214 29.44 27.623 4.403 0.103 8.268 0.103 15.641 0.077l0.743-0.026h13.9l7.988 0.052 7.705-0.128z m-222.848 0c16.307-0.308 28.928-11.802 29.594-27.239a28.646 28.646 0 0 0-28.109-30.157c-15.258-0.588-31.104-0.563-48.102-0.05-16.564 0.537-29.056 13.567-28.596 29.593 0.436 15.846 13.261 27.545 29.927 27.853 4.377 0.102 7.859 0.102 15.641 0.05h13.952c7.834 0.052 11.316 0.052 15.693-0.05z"  horiz-adv-x="1024" />

    
    <glyph glyph-name="zuoji11" unicode="&#58885;" d="M879.3-63.4H135.2c-33.8 0-65.4 16.7-84.6 44.5-19.1 27.8-23.3 63.2-11.2 94.7l163.3 519.8 0.1 0.2c15.2 39.3 53.6 65.6 95.7 65.6H716c42.1 0 80.5-26.4 95.7-65.6l0.2-0.5 163.2-519.5c12.1-31.5 7.9-66.9-11.2-94.7-19.2-27.8-50.8-44.5-84.6-44.5zM218 590.3L54.7 70.5l-0.1-0.2c-10.4-27-7-56.1 9.4-80 16.4-23.8 42.3-37.5 71.2-37.5h744.1c28.9 0 54.9 13.7 71.2 37.5 16.4 23.8 19.8 53 9.4 80l-0.2 0.5-163.2 519.5c-12.8 32.9-45.1 55-80.5 55H298.5c-35.3 0-67.7-22.1-80.5-55zM507.3 105.9c-106.5 0-193.2 86.7-193.2 193.2s86.7 193.2 193.2 193.2 193.2-86.7 193.2-193.2-86.7-193.2-193.2-193.2z m0 370.1c-97.6 0-177-79.4-177-177s79.4-177 177-177 177 79.4 177 177-79.5 177-177 177zM636.7 319.2c-3.7 0-7.1 2.6-7.9 6.4-7.4 34.1-29.1 63.7-59.4 81.2-3.9 2.2-5.2 7.2-3 11.1 2.2 3.9 7.2 5.2 11.1 3 34.3-19.8 58.8-53.3 67.2-91.8 0.9-4.4-1.8-8.7-6.2-9.6-0.7-0.2-1.3-0.3-1.8-0.3zM411.3 626.9c-4.5 0-8.1 3.6-8.1 8.1v91.4c0 4.5 3.6 8.1 8.1 8.1s8.1-3.6 8.1-8.1V635c-0.1-4.4-3.7-8.1-8.1-8.1zM603.3 626.9c-4.5 0-8.1 3.6-8.1 8.1v91.4c0 4.5 3.6 8.1 8.1 8.1s8.1-3.6 8.1-8.1V635c-0.1-4.4-3.7-8.1-8.1-8.1zM978 517.7h-43.5c-21.8 0-41.4 14.8-47.6 35.9-28.3 97-118.5 164.8-219.2 164.8H356.3c-100.8 0-190.9-67.8-219.2-164.8-6.2-21.1-25.7-35.9-47.6-35.9H46c-25.4 0-46 20.6-46 46v23.2c0 65 25.5 126.4 71.8 172.7 46.3 46.3 107.6 71.8 172.7 71.8h535.1c65 0 126.4-25.5 172.7-71.8 46.3-46.3 71.8-107.6 71.8-172.7v-23.2c-0.1-25.4-20.7-46-46.1-46zM356.3 734.5h311.4c107.9 0 204.5-72.5 234.8-176.4 4.2-14.5 17.1-24.2 32-24.2H978c16.4 0 29.8 13.4 29.8 29.8v23.2c0 125.9-102.4 228.3-228.3 228.3h-535c-125.9 0-228.3-102.4-228.3-228.3v-23.2c0-16.4 13.4-29.8 29.8-29.8h43.5c14.9 0 27.8 9.7 32 24.2C151.8 662 248.4 734.5 356.3 734.5z"  horiz-adv-x="1024" />

    
    <glyph glyph-name="ziyuan1" unicode="&#59068;" d="M546.728682 450.728682h93.51938v-93.51938h-93.51938zM696.310078 450.728682h93.519379v-93.51938h-93.519379zM846.883721 450.728682h93.51938v-93.51938h-93.51938zM546.728682 311.565891h93.51938v-93.519379h-93.51938zM696.310078 311.565891h93.519379v-93.519379h-93.519379zM846.883721 311.565891h93.51938v-93.519379h-93.51938zM546.728682 172.403101h93.51938v-93.51938h-93.51938zM696.310078 172.403101h93.519379v-93.51938h-93.519379zM846.883721 172.403101h93.51938v-93.51938h-93.51938zM317.51938 896H64.248062A64.248062 64.248062 0 0 1 0 831.751938v-201.426357a64.248062 64.248062 0 0 1 63.751938-64.248062V201.426357A64 64 0 0 1 0 137.674419v-201.674419a64.248062 64.248062 0 0 1 64.248062-64H317.51938a64.248062 64.248062 0 0 1 64.248062 64v201.674419A64 64 0 0 1 318.015504 201.426357V566.077519a64.248062 64.248062 0 0 1 63.751938 64.248062V831.751938A64.248062 64.248062 0 0 1 317.51938 896z m14.635659-265.674419a14.635659 14.635659 0 0 0-14.635659-14.635659h-49.612403V151.813953h49.612403a14.387597 14.387597 0 0 0 14.635659-14.387596v-201.426357a14.387597 14.387597 0 0 0-14.635659-14.387597H64.248062A14.387597 14.387597 0 0 0 49.612403-64v201.674419a14.387597 14.387597 0 0 0 14.635659 14.139534h49.612403V615.689922h-49.612403a14.635659 14.635659 0 0 0-14.635659 14.635659V831.751938A14.387597 14.387597 0 0 0 64.248062 846.387597H317.51938a14.387597 14.387597 0 0 0 14.635659-14.635659zM994.728682 833.736434H492.403101a77.643411 77.643411 0 0 1-77.643411-77.395349v-744.186046a77.891473 77.891473 0 0 1 77.643411-77.643411H994.728682a77.643411 77.643411 0 0 1 77.395349 77.643411v744.186046a77.395349 77.395349 0 0 1-77.395349 77.395349z m27.782946-822.077519a28.031008 28.031008 0 0 0-27.782946-28.031008H492.403101a28.27907 28.27907 0 0 0-28.031008 28.031008v744.186046a28.031008 28.031008 0 0 0 28.031008 27.782946H994.728682a27.782946 27.782946 0 0 0 27.782946-27.782946zM914.108527 688.868217H573.023256a30.015504 30.015504 0 0 1-30.015504-30.015504v-70.449612a30.015504 30.015504 0 0 1 30.015504-30.015504h341.085271a30.263566 30.263566 0 0 1 30.015504 30.015504V658.852713a30.263566 30.263566 0 0 1-30.015504 30.015504z m5.209302-100.465116a5.457364 5.457364 0 0 0-5.209302-5.209303H573.023256a5.209302 5.209302 0 0 0-5.209303 5.209303V658.852713a5.209302 5.209302 0 0 0 5.209303 5.209303h341.085271a5.457364 5.457364 0 0 0 5.209302-5.209303z"  horiz-adv-x="1072" />

    
    <glyph glyph-name="tongxunlufuzhi" unicode="&#58898;" d="M953.279 135.785c0-15.245-12.361-27.579-27.581-27.579h-165.48c-15.22 0-27.58 12.334-27.58 27.579 0 15.241 12.361 27.574 27.58 27.574h165.48c15.221 0.001 27.581-12.333 27.581-27.574zM705.056 604.64h220.641c15.221 0 27.581 12.359 27.581 27.574 0 15.246-12.361 27.581-27.581 27.581h-220.641c-15.244 0-27.579-12.335-27.579-27.581-0-15.215 12.335-27.574 27.579-27.574zM925.698 494.333h-220.641c-15.244 0-27.579-12.361-27.579-27.607 0-15.212 12.335-27.573 27.579-27.573h220.641c15.221 0 27.581 12.361 27.581 27.573 0 15.247-12.361 27.607-27.581 27.607zM925.698 328.845h-165.48c-15.22 0-27.58-12.357-27.58-27.574 0-15.245 12.361-27.58 27.58-27.58h165.48c15.221 0 27.581 12.335 27.581 27.58 0 15.217-12.361 27.574-27.581 27.574zM677.477 218.514v-110.308c0-91.402-74.081-165.487-165.48-165.487h-275.798c-91.397 0-165.481 74.084-165.481 165.487v110.308c0 72.445 46.861 133.366 111.674 155.768-35.292 47.634-56.514 108.674-56.514 175.204 0 152.323 111.137 275.795 248.22 275.795 137.104 0 248.245-123.472 248.245-275.795 0-66.53-21.223-127.57-56.542-175.204 64.815-22.401 111.675-83.323 111.675-155.768zM374.1 328.845c106.616 0 193.056 98.779 193.056 220.641 0 121.863-86.44 220.641-193.056 220.641-106.644 0-193.035-98.778-193.035-220.641-0-121.862 86.392-220.641 193.035-220.641zM622.345 204.724c0 58.632-44.536 107.485-104.168 120.471-40.653-32.303-90.296-51.503-144.076-51.503-53.806 0-103.425 19.2-144.080 51.503-59.629-12.985-104.141-61.838-104.141-120.471v-82.729c0-68.552 60.626-124.121 135.397-124.121h225.645c74.798 0 135.423 55.569 135.423 124.121v82.729z"  horiz-adv-x="1024" />

    
    <glyph glyph-name="info-copy" unicode="&#58886;" d="M507.944 879.434c-275.328 0-498.498-223.633-498.498-499.513s223.17-499.513 498.498-499.513c275.277 0 498.498 223.633 498.498 499.513s-223.222 499.513-498.498 499.513zM507.944-69.64c-247.413 0-448.649 201.653-448.649 449.561 0 247.906 201.236 449.561 448.649 449.561 247.36 0 448.649-201.655 448.649-449.561 0.001-247.908-201.289-449.561-448.649-449.561zM750.836 428.6c-26.815 0-48.578-21.808-48.578-48.677 0-26.87 21.763-48.676 48.578-48.676s48.579 21.807 48.579 48.676c0 26.869-21.764 48.677-48.579 48.677zM265.052 428.6c-26.815 0-48.578-21.808-48.578-48.677 0-26.87 21.763-48.676 48.578-48.676 26.815 0 48.578 21.807 48.578 48.676 0 26.869-21.763 48.677-48.578 48.677zM507.944 428.6c-26.815 0-48.578-21.808-48.578-48.677 0-26.87 21.763-48.676 48.578-48.676 26.815 0 48.579 21.807 48.579 48.676 0 26.869-21.764 48.677-48.579 48.677z"  horiz-adv-x="1024" />

    
    <glyph glyph-name="xinxi4" unicode="&#58921;" d="M556.666636 9.920337a173.762807 173.762807 0 0 0-92.957772-57.096539h-0.085282a172.867342 172.867342 0 0 0-126.622983 18.527592 172.78206 172.78206 0 0 0-79.312595 100.46262 173.400357 173.400357 0 0 0 3.006204 108.990855L26.487528 316.020046c-12.898957 7.440886-14.09291 26.650737-2.259982 35.626705l280.642924 212.88609 97.840186 169.456048c44.623995 77.287138 116.794191 129.309377 197.108854 150.821852 80.335983 21.533796 168.859072 12.600469 246.124889-32.023526v-0.085282c77.287138-44.623995 129.309377-116.794191 150.821852-197.108853 21.533796-80.357303 12.600469-168.880392-32.023526-246.14621h-0.085282l-97.925469-169.626613-44.027018-349.252582c-1.854891-14.732528-19.103248-23.260764-31.938244-15.841198l-234.100076 135.19386z m227.661258-81.977668l40.530441 321.642419c0.106603 0.831503 2.259983 7.334283 2.686395 8.037862l100.078848 173.336395h-0.085282a280.834809 280.834809 0 0 1 27.82337 213.61099c-18.676837 69.739649-63.812525 132.400863-130.865781 171.119054v-0.085282a280.834809 280.834809 0 0 1-213.610989 27.823369c-69.739649-18.676837-132.400863-63.812525-171.119054-130.86578l-100.078849-173.336395c-0.426412-0.7249-4.861094-5.863162-5.522033-6.374857L75.908655 336.935544l708.419239-408.992875z m-265.67587 103.937876l-220.049808 127.049395a131.164269 131.164269 0 0 1 0.170565-74.856591 130.226163 130.226163 0 0 1 59.697652-75.645453 130.226163 130.226163 0 0 1 95.43096-13.815742h-0.085283a130.609933 130.609933 0 0 1 64.835914 37.268391z"  horiz-adv-x="1024" />

    
    <glyph glyph-name="tongxunlu1" unicode="&#59037;" d="M292.438-30.719H775.32c82.379 0 149.399 67.021 149.399 149.401v528.15c-0.002 82.379-67.022 149.4-149.399 149.4H292.438c-82.379 0-149.399-67.021-149.399-149.4v-92.039h-16.591c-15.814 0-28.679-12.866-28.679-28.681 0-15.814 12.865-28.679 28.679-28.679h16.591v-78.451h-16.591c-15.814 0-28.679-12.865-28.679-28.679 0-15.813 12.865-28.679 28.679-28.679h16.591v-78.451h-16.591c-15.814 0-28.679-12.865-28.679-28.679 0-15.815 12.865-28.682 28.679-28.682h16.591v-107.13c-0.001-82.379 67.02-149.401 149.399-149.401z m-92.04 256.531h16.589c15.815 0 28.681 12.866 28.681 28.682 0 15.813-12.866 28.679-28.681 28.679h-16.589v78.451h16.589c15.815 0 28.681 12.865 28.681 28.679 0 15.814-12.866 28.679-28.681 28.679h-16.589v78.451h16.589c15.815 0 28.681 12.865 28.681 28.679 0 15.815-12.866 28.681-28.681 28.681h-16.589v92.039c0 50.752 41.289 92.042 92.04 92.042H775.32c50.751 0 92.039-41.29 92.039-92.042v-528.149c0-50.752-41.289-92.041-92.041-92.041h-482.88c-50.751 0-92.04 41.289-92.04 92.041V225.812zM405.612 494.433h256.529c13.31 0 24.138 10.827 24.138 24.135s-10.827 24.135-24.135 24.135H405.612c-13.308 0-24.135-10.827-24.135-24.135s10.827-24.135 24.135-24.135zM662.144 406.894H405.612c-13.308 0-24.135-10.827-24.135-24.135 0-13.308 10.827-24.135 24.135-24.135h256.529c13.31 0 24.138 10.827 24.138 24.135-0.001 13.308-10.828 24.135-24.135 24.135zM662.144 271.082H405.612c-13.308 0-24.135-10.826-24.135-24.133 0-13.308 10.827-24.135 24.135-24.135h256.529c13.31 0 24.138 10.827 24.138 24.135-0.001 13.307-10.828 24.133-24.135 24.133z"  horiz-adv-x="1024" />

    
    <glyph glyph-name="xinxi11" unicode="&#58912;" d="M512.501-62.398000000000025c-119.32 0-231.5 46.465-315.87 130.838-84.372 84.372-130.839 196.55-130.839 315.871 0 119.32 46.467 231.5 130.838 315.871C281.003 784.5550000000001 393.18 831.02 512.501 831.02s231.5-46.465 315.872-130.838c84.372-84.372 130.837-196.551 130.837-315.87 0-119.323-46.465-231.5-130.837-315.872C744-15.932999999999993 631.822-62.398000000000025 512.5-62.398000000000025z m0 852.436c-223.718 0-405.726-182.009-405.726-405.727S288.783-21.414999999999964 512.5-21.414999999999964c223.719 0 405.728 182.008 405.728 405.726S736.221 790.038 512.501 790.038z m-2.35-669.992c-18.108 0-32.746 14.679-32.746 32.786V443.808c0 18.109 14.638 32.786 32.746 32.786 18.107 0 32.746-14.678 32.746-32.786v-290.976c0-18.107-14.639-32.786-32.746-32.786zM466.277 599.5409999999999a44.054 44.054 0 1 1 90.161 0 44.054 44.054 0 1 1-90.161 0z"  horiz-adv-x="1024" />

    
    <glyph glyph-name="xinxi21" unicode="&#58939;" d="M655.36 494.312727H363.054545a36.538182 36.538182 0 1 0 0 73.076364h292.305455a36.538182 36.538182 0 1 0 0-73.076364z m-69.352727-146.152727H363.054545a36.538182 36.538182 0 1 0 0 73.076364h222.952728a36.538182 36.538182 0 1 0 0-73.076364zM1024 457.541818C1024 699.112727 794.065455 896 512 896S0 699.112727 0 457.541818a418.909091 418.909091 0 0 1 197.818182-343.04 36.538182 36.538182 0 1 1 40.96 60.509091 346.298182 346.298182 0 0 0-165.701818 282.530909c0 201.541818 196.887273 365.381818 438.923636 365.381818s438.923636-163.84 438.923636-364.916363-196.887273-365.381818-438.923636-365.381818h-6.516364a36.305455 36.305455 0 0 1-40.96-22.807273 289.047273 289.047273 0 0 0-107.52-84.247273c20.014545 66.56 10.24 80.523636 4.189091 90.298182a40.96 40.96 0 0 1-35.374545 16.290909 36.305455 36.305455 0 0 1-36.770909-36.305455 36.305455 36.305455 0 0 1 4.654545-18.152727 753.105455 753.105455 0 0 0-37.701818-114.036363 36.770909 36.770909 0 0 1 46.545455-46.545455c41.890909 18.618182 168.494545 78.661818 214.574545 143.36 279.272727 4.189091 503.156364 198.749091 503.156364 437.992727z m0 0"  horiz-adv-x="1025" />

    
    <glyph glyph-name="xinxi31" unicode="&#58984;" d="M736.08486494 534.0787910500001H287.60808536c-20.65607017 0-37.37297194-16.71578521-37.37297192-37.37408847s16.71690176-37.37185538 37.37297192-37.37185538h448.47677958c20.65941979 0 37.37297194 16.71466868 37.37297192 37.37185538s-16.71466868 37.37408847-37.37297192 37.37408847z m0 149.49188769H287.60808536c-20.65607017 0-37.37297194-16.71578521-37.37297192-37.37297192 0-20.65607017 16.71690176-37.37408847 37.37297192-37.37408848h448.47677958c20.65941979 0 37.37297194 16.71690176 37.37297192 37.37408848 0 20.65607017-16.71466868 37.37297194-37.37297192 37.37297192z m186.8648596-443.55505218V758.3177391199999c0 41.27752747-33.46506676 74.7448273-74.74594384 74.74482728H175.48805307c-41.2764109 0-74.7448273-33.46729985-74.74482732-74.74482728v-747.4616715c0-41.27976055 33.4684164-74.74706039 74.74482732-74.74706036h440.85636448c11.88226478-2.42736739 24.71470883 0.96246122 33.93624849 10.1828843l262.08645131 262.08533478c8.63088769 8.63088769 12.15581815 20.42271239 10.58260719 31.63840022zM661.3389211 63.04558284999996V197.72092722000002H796.01538203L661.33780456 63.04558284999996z m186.8648596 209.42240476H623.96483264c-20.65495363 0-37.37073883-16.71690176-37.37073882-37.37408846 0-0.06699266 0.00334963-0.13398532 0.00446617-0.20097799 0-0.06699266-0.00558272-0.13398532-0.00558273-0.20097798v-223.83587556H212.86214154c-20.65607017 0-37.37408847 16.71466868-37.37408847 37.37185539V720.94365065c0 20.65607017 16.71801831 37.37408847 37.37408847 37.37408847h597.96755069c20.65830326 0 37.37297194-16.71690176 37.37297194-37.37408847v-448.47566304z"  horiz-adv-x="1024" />

    
    <glyph glyph-name="rili1" unicode="&#58903;" d="M505.6-32h-400c-35.2 0-64 9.6-86.4 32-9.6 9.6-12.8 22.4-12.8 35.2v608c0 35.2 38.4 64 83.2 67.2h83.2c12.8 0 19.2 3.2 19.2 12.8v25.6c6.4 25.6 25.6 38.4 57.6 38.4 25.6 0 44.8-16 48-41.6v-3.2c3.2-35.2 3.2-35.2 44.8-35.2h348.8c16 0 22.4 3.2 22.4 16v22.4c3.2 25.6 25.6 38.4 54.4 38.4 28.8 0 48-16 51.2-38.4 0-12.8-6.4-28.8 3.2-35.2 12.8-6.4 32-3.2 48-3.2h48c48-3.2 86.4-32 86.4-70.4v-601.6c0-41.6-41.6-70.4-99.2-73.6-128 6.4-265.6 6.4-400 6.4z m3.2 547.2h-400c-16 0-22.4-3.2-22.4-16v-441.6c0-19.2 9.6-22.4 28.8-22.4h787.2c28.8 0 28.8 0 28.8 22.4V496c0 16-3.2 19.2-22.4 19.2h-400zM259.2 131.2H208c-22.4 0-32 9.6-35.2 25.6v54.4c0 16 12.8 25.6 32 25.6h108.8c22.4 0 32-9.6 32-28.8v-51.2c0-16-9.6-25.6-32-25.6h-54.4z m249.6 0h-51.2c-22.4 0-35.2 9.6-35.2 25.6V208c0 19.2 9.6 25.6 32 28.8H560c19.2 0 32-9.6 32-25.6v-54.4c0-16-12.8-25.6-32-25.6h-51.2z m249.6 105.6h54.4c19.2 0 32-9.6 28.8-25.6v-57.6c0-16-12.8-25.6-32-25.6H700.8c-19.2 0-32 9.6-32 25.6V208c0 16 12.8 25.6 32 25.6 19.2 6.4 38.4 3.2 57.6 3.2z m-249.6 76.8h-54.4c-22.4 0-32 6.4-32 25.6v57.6c0 16 9.6 22.4 28.8 22.4h112c19.2 0 28.8-9.6 32-25.6v-54.4c0-16-9.6-25.6-32-25.6h-54.4zM259.2 419.2h54.4c19.2 0 32-9.6 32-22.4v-57.6c0-16-9.6-22.4-28.8-22.4h-112c-19.2 0-28.8 6.4-28.8 22.4V400c0 16 12.8 22.4 32 22.4 16-3.2 32-3.2 51.2-3.2z m496-105.6h-54.4c-19.2 0-32 9.6-32 25.6v57.6c0 16 9.6 22.4 28.8 22.4h112c19.2 0 28.8-9.6 28.8-22.4v-57.6c0-12.8-9.6-22.4-28.8-22.4-16-3.2-35.2-3.2-54.4-3.2z"  horiz-adv-x="1024" />

    
    <glyph glyph-name="tongxun1" unicode="&#59332;" d="M867.511923-62.708971H230.947929c-40.024575 0-72.588225 32.67212-72.588225 72.833818V757.876176c0 40.161698 32.56365 72.833819 72.588225 72.833819H867.511923c40.024575 0 72.579015-32.67212 72.579015-72.833819v-747.751329c0.001023-40.161698-32.553417-72.833819-72.579015-72.833818z m-634.700553 74.451665h632.828926V756.258329H232.81137v-744.515635zM724.187657 179.255873h-63.284325V588.739011h63.284325c16.435321 0 29.780257-16.676821 29.780257-37.225833V216.480682c0-20.547988-13.344936-37.22481-29.780257-37.224809M270.037203 523.596362H121.133871c-20.558222 0-37.225833 16.667611-37.225833 37.225833s16.667611 37.225833 37.225833 37.225832h148.903332c20.558222 0 37.225833-16.667611 37.225833-37.225832 0-20.557198-16.668635-37.225833-37.225833-37.225833zM270.037203 169.951973H121.133871c-20.558222 0-37.225833 16.667611-37.225833 37.225832s16.667611 37.225833 37.225833 37.225833h148.903332c20.558222 0 37.225833-16.667611 37.225833-37.225833s-16.668635-37.225833-37.225833-37.225832z"  horiz-adv-x="1024" />

    
    <glyph glyph-name="xinxi41" unicode="&#59013;" d="M872.96-12.8H151.04c-84.48 0-151.04 66.56-151.04 148.48V629.76c0 84.48 66.56 151.04 151.04 151.04h724.48c81.92 0 148.48-66.56 148.48-151.04v-494.08c0-81.92-66.56-148.48-151.04-148.48zM151.04 724.48c-51.2 0-92.16-40.96-92.16-92.16v-494.08c0-51.2 40.96-92.16 92.16-92.16h724.48c51.2 0 92.16 40.96 92.16 92.16V629.76c0 51.2-40.96 92.16-92.16 92.16L151.04 724.48zM509.44 355.84h-7.68L28.16 481.28c-15.36 5.12-25.6 20.48-20.48 35.84 5.12 15.36 20.48 25.6 35.84 20.48L512 414.72 962.56 537.6c15.36 5.12 30.72-5.12 35.84-20.48s-5.12-30.72-20.48-35.84l-455.68-125.44h-12.8z"  horiz-adv-x="1024" />

    
    <glyph glyph-name="youxiang11" unicode="&#58888;" d="M955.73333333 639.6800000000001v-499.2c0-5.01333333-0.64-9.92-1.70666666-14.82666667v-0.10666666c-0.10666667-0.32-0.10666667-0.53333333-0.21333334-0.85333334-7.36-33.92-38.4-58.24-74.34666666-58.24h-754.13333334c-26.45333333 0-51.84 10.56-69.33333333 29.65333334-0.53333333 0.53333333-0.96 1.06666667-1.49333333 1.6-1.17333333 1.38666667-2.34666667 2.77333333-3.41333334 4.26666666-10.98666667 14.29333333-16.74666667 31.89333333-16.74666666 49.70666667V626.0266666699999c0 28.16 18.98666667 53.22666667 46.82666666 61.54666666 0.21333333 0.10666667 0.42666667 0.10666667 0.64 0.21333334 0.10666667 0 0.10666667 0 0.21333334 0.10666666 10.66666667 3.09333333 21.86666667 4.48 32.96 4.48H909.86666667c1.17333333-0.42666667 2.34666667-1.06666667 3.62666666-1.28 22.93333333-3.73333333 36.48-16.64 40.74666667-38.72 0.85333333-4.16 1.49333333-8.42666667 1.49333333-12.69333333z m-460.69333333-322.13333333C630.08 427.30666667 764.8 536.8533333299999 900.90666667 647.46666667c-59.52 3.30666667-799.36 1.38666667-807.78666667-2.24 133.97333333-109.22666667 267.73333333-218.24 401.92-327.68zM615.46666667 356.79999999999995c-34.56-28.16-68.58666667-55.89333333-102.61333334-83.52-12.37333333-10.02666667-23.04-10.13333333-35.30666666-0.21333333-14.50666667 11.84-28.90666667 23.68-43.41333334 35.41333333-19.09333333 15.57333333-38.18666667 31.14666667-57.49333333 46.82666667-90.02666667-80.64-179.73333333-160.85333333-269.33333333-241.17333334 0.32-0.64 0.64-1.38666667 0.96-2.02666666h785.81333333c-93.22666667 81.81333333-185.6 162.98666667-278.61333333 244.69333333z m-274.24 27.52c-87.04 71.04-173.22666667 141.33333333-260.26666667 212.37333333v-445.44c87.25333333 78.18666667 173.44 155.30666667 260.26666667 233.06666667z m309.86666666 1.38666667c86.29333333-75.73333333 171.73333333-150.82666667 258.24-226.77333334V595.8399999999999c-86.50666667-70.29333333-171.94666667-139.84-258.24-210.13333333z"  horiz-adv-x="1024" />

    
    <glyph glyph-name="xinxi5" unicode="&#58940;" d="M320-64c-9.6 0-17.6 3.2-24 11.2-11.2 12.8-9.6 33.6 4.8 44.8l174.4 145.6C492.8 152 513.6 160 536 160h328c17.6 0 32 14.4 32 32V704c0 17.6-14.4 32-32 32H160c-17.6 0-32-14.4-32-32v-512c0-17.6 14.4-32 32-32h128c17.6 0 32-14.4 32-32s-14.4-32-32-32H160c-52.8 0-96 43.2-96 96V704c0 52.8 43.2 96 96 96h704c52.8 0 96-43.2 96-96v-512c0-52.8-43.2-96-96-96H534.4c-8 0-14.4-3.2-20.8-8L339.2-57.6c-4.8-3.2-11.2-6.4-19.2-6.4z m-32 464c-17.6 0-32 14.4-32 32v32c0 17.6 14.4 32 32 32s32-14.4 32-32v-32c0-17.6-14.4-32-32-32z m224 0c-17.6 0-32 14.4-32 32v32c0 17.6 14.4 32 32 32s32-14.4 32-32v-32c0-17.6-14.4-32-32-32z m224 0c-17.6 0-32 14.4-32 32v32c0 17.6 14.4 32 32 32s32-14.4 32-32v-32c0-17.6-14.4-32-32-32z"  horiz-adv-x="1024" />

    
    <glyph glyph-name="icon_Landline" unicode="&#59023;" d="M1113.073285 510.219805c-89.571868-126.219805-189.599178-6.49423-212.153827 29.66866-22.554649 36.16289-167.125369 175.398102-333.361488 175.398103-197.0635 0-312.585341-144.004833-335.247778-180.706664-22.662437-36.701831-123.255634-158.178961-213.339495-30.099813C-14.52444 544.846716-76.044468 895.130927 567.531023 895.993231c640.018486-0.835357 578.848768-346.026583 545.542262-385.773426zM567.55797 835.766659c-585.316051 0-512.882483-270.251585-487.633132-301.186755 43.438584-53.139508 81.999758 8.111051 121.908283 60.253519 29.102773 37.995287 161.250921 182.027067 365.724849 182.027067 172.137514 0 337.026281-145.02882 363.676877-177.634704 35.35448-43.223008 88.601776-111.425895 121.20766-59.337321 23.551689 31.501057 95.096006 295.878194-484.884537 295.878194z m0-180.706664c264.835236 0 457.129114-403.127302 457.129115-602.346563 0-178.038909-59.202586-180.706664-457.129115-180.706663s-457.156061 2.694701-457.156061 180.706663c0 194.314905 191.889674 602.346563 457.156061 602.346563z m0-722.799707c344.867862 0 396.174973 2.209655 396.174973 151.79252 0 135.678206-166.66727 510.780616-396.174973 510.780615-229.911908 0-396.20192-377.581535-396.20192-510.780615 0-149.555918 51.334058-151.79252 396.20192-151.79252z m0 542.093044c84.155519 0 152.358407-67.421424 152.358407-150.579904 0-83.15848-68.202888-150.579904-152.358407-150.579904-84.182466 0-152.385354 67.421424-152.385353 150.579904 0 83.15848 68.202888 150.579904 152.385353 150.579904z m0-240.933236c50.498701 0 91.404265 40.447465 91.404266 90.353332 0 49.905867-40.932511 90.353332-91.404266 90.353332-50.498701 0-91.431212-40.447465-91.431212-90.353332 0-49.905867 40.932511-90.353332 91.431212-90.353332z"  horiz-adv-x="1131" />

    
    <glyph glyph-name="tongxun" unicode="&#58911;" d="M387.230833-63.577758l0.011256 0c-33.645284 0-64.507176 7.878434-91.75168 23.443945-29.099758 16.624632-51.801806 42.244126-71.027683 71.722508-2.563382 4.615111-2.820232 5.127787-5.40715 9.861602-29.020964 53.111638 3.584642 137.173173 82.975806 199.694111 43.273573 34.06791 91.115184 53.602825 131.270742 53.602825 29.843702 0 54.001915-10.94426 68.62803-30.958082 3.13234-2.049682 8.356318-4.725628 12.639878-4.725628 1.231037 0 3.78828 0 7.619538 4.336772 0.25071 0.258896 0.497327 0.518816 0.74599 0.799202 22.355147 28.994358 43.014676 60.211337 61.454654 92.810802 16.935718 29.963429 31.927153 60.945047 44.569078 92.161003 1.747807 9.866718 0.431835 14.786775-0.691755 16.170285-0.809435 0.992607-3.215228 1.641383-3.237741 1.641383-21.881356 0.51677-41.426505 10.361999-56.981782 28.454052-29.274744 34.066887-41.721217 93.954859-33.279964 160.209842 12.93152 101.57542 68.64031 178.171935 129.58638 178.171935 0.194428 0 1.531889-0.022513 1.735527-0.022513 2.89391-0.064468 5.721305-0.343831 8.496511-0.776689 37.412075 1.661849 71.823815-6.131651 101.736079-23.208585 138.448212-79.099523 141.363611-327.715857 6.649444-565.989635C679.001013 59.950649 519.967974-63.577758 387.230833-63.577758L387.230833-63.577758zM433.303148 244.274702c-28.617781 0-66.008366-15.996322-100.04353-42.787502-59.346643-46.716998-85.532025-108.128673-72.140017-133.23856 2.050706-3.846608 3.488451-6.255471 4.614088-8.202822 13.329587-23.072485 33.275871-44.047192 54.798047-56.353472 19.515473-11.162224 41.957601-16.796548 66.698075-16.796548 113.329115 0 257.982656 115.864868 351.797321 281.774525 116.826775 206.623941 122.440633 434.364829 12.252045 497.315556-22.107507 12.607132-48.187489 18.178011-76.694753 16.47216-2.092661-0.107447-4.187369 0.021489-6.237051 0.411369-1.143033 0.236384-2.310625 0.430812-3.499707 0.474814-29.973662 0-70.236668-57.341986-80.006172-134.088928-6.466272-50.732451 1.964748-98.204649 21.48022-120.91693 9.152451-10.643408 16.915251-10.815323 19.461237-10.881838 2.193968 0 25.831318-0.733711 41.720194-20.357654 12.124132-14.962783 15.653515-35.233456 10.492982-60.210313-0.303922-1.466398-0.735757-2.915399-1.294482-4.319375-13.667278-34.001395-29.943986-67.787896-48.380894-100.407827-20.120246-35.577287-42.75578-69.622684-67.292616-101.206006-1.088798-1.403976-2.309602-2.676969-3.62762-3.800559-11.93789-12.154831-26.671453-18.565844-42.830481-18.565844-25.624611 0-45.50745 16.579607-47.691185 18.48091-1.886977 1.64036-3.538593 3.560082-4.866844 5.698792C456.065572 242.289488 443.113585 244.274702 433.303148 244.274702L433.303148 244.274702zM353.68174 414.263258c-12.057617 0-22.765493 8.615215-25.021883 20.896936-4.264117 23.25054 0.788969 46.781466 14.216793 66.25703 13.43908 19.453051 33.647331 32.532951 56.907081 36.786835 13.860682 2.526543 27.105335-6.626931 29.641087-20.466124 2.538823-13.837146-6.627954-27.114544-20.465101-29.638017-9.875928-1.814322-18.459421-7.362688-24.157189-15.632025-5.711072-8.245801-7.846712-18.240433-6.046716-28.129664 2.548032-13.837146-6.616698-27.093055-20.454868-29.641087C356.758822 414.416753 355.203396 414.263258 353.68174 414.263258L353.68174 414.263258zM267.618619 416.101115c-12.05864 0-22.76447 8.591679-25.010627 20.874423-15.47853 84.369549 40.565904 165.584246 124.933407 181.042309 13.794168 2.52552 27.104311-6.626931 29.641087-20.464077 2.536776-13.81668-6.628978-27.097148-20.454868-29.620621-56.735166-10.406001-94.427626-65.027016-84.021625-121.760135 2.536776-13.839193-6.628978-27.115568-20.467147-29.641087C270.694677 416.250518 269.141298 416.101115 267.618619 416.101115L267.618619 416.101115zM169.034323 388.294816c-12.056594 0-22.765493 8.588609-25.02086 20.8734-12.867052 70.183456 2.363837 141.169183 42.894949 199.88854 40.521902 58.721403 101.489462 98.142228 171.673941 111.00928 13.805424 2.526543 27.094078-6.626931 29.641087-20.465101 2.536776-13.83817-6.627954-27.094078-20.466124-29.641087-56.789401-10.403954-106.128109-42.313711-138.934283-89.830935-32.791847-47.537689-45.119617-104.985076-34.714639-161.78471 2.536776-13.817704-6.615675-27.093055-20.453844-29.642111C172.101171 388.420683 170.557002 388.294816 169.034323 388.294816L169.034323 388.294816z"  horiz-adv-x="1024" />

    
    <glyph glyph-name="zuoji" unicode="&#58901;" d="M565.127529 654.998588c263.228235 0 454.415059-402.974118 454.415059-602.172235 0-178.115765-58.789647-180.705882-454.415059-180.705882-395.685647 0-454.475294 2.770824-454.475294 180.705882-0.180706 194.138353 190.704941 602.172235 454.475294 602.172235z m0-722.823529c342.799059 0 393.818353 2.288941 393.818353 151.853176C958.945882 219.798588 793.298824 594.823529 565.127529 594.823529c-228.653176 0-393.878588-377.554824-393.878588-510.735058C171.068235-65.536 222.147765-67.764706 565.127529-67.764706z m0 541.997176a151.070118 151.070118 0 0 0 151.43153-150.588235c0-83.064471-67.885176-150.528-151.43153-150.528a151.070118 151.070118 0 0 0-151.491764 150.588235 150.768941 150.768941 0 0 0 151.491764 150.528z m0-240.880941c50.176 0 90.895059 40.417882 90.895059 90.352941 0 49.874824-40.719059 90.352941-90.955294 90.352941-50.176 0-90.834824-40.478118-90.834823-90.352941-0.180706-49.935059 40.658824-90.352941 90.895058-90.352941zM1107.365647 510.072471c-89.148235-126.253176-188.416-6.445176-210.944 29.635764-22.347294 36.201412-166.068706 175.465412-331.294118 175.465412-195.885176 0-310.814118-143.962353-333.281882-180.645647-22.528-36.743529-122.458353-158.117647-212.028235-30.117647C-13.673412 544.828235-74.691765 895.036235 565.067294 895.819294c636.205176-0.963765 575.427765-345.991529 542.238118-385.746823zM565.127529 835.644235c-581.993412 0-509.891765-270.215529-484.773647-301.116235 43.128471-53.127529 81.498353 8.071529 121.193412 60.235294 28.973176 37.948235 160.225882 181.910588 363.580235 181.910588 171.068235 0 335.028706-145.046588 361.592471-177.573647 35.177412-43.128471 88.124235-111.435294 120.530824-59.392 23.311059 31.563294 94.448941 295.936-482.123295 295.936z"  horiz-adv-x="1144" />

    
    <glyph glyph-name="xinxi" unicode="&#58893;" d="M1041.746244 572.907149c-97.256833 0-175.562715-75.896471-174.358009-169.631855 0-46.242172 18.997285-87.75819 49.809955-118.617194V194.490498l78.305882 43.879095c14.224796-3.567783 29.654299-5.93086 46.242172-5.93086 97.256833 0 175.562715 74.7381 175.562715 169.631855s-78.259548 170.836561-175.562715 170.836561z m-93.689049-198.081448c-17.792579 0-30.859005 14.224796-30.859005 30.859005 0 16.587873 14.224796 30.859005 30.859005 30.859004 17.792579 0 30.859005-14.224796 30.859004-30.859004 0-17.838914-14.271131-30.859005-30.859004-30.859005z m93.689049 0c-17.792579 0-30.859005 14.224796-30.859004 30.859005 0 16.587873 14.224796 30.859005 30.859004 30.859004 17.792579 0 30.859005-14.224796 30.859005-30.859004 0-17.838914-13.02009-30.859005-30.859005-30.859005z m93.735385 0c-17.792579 0-30.859005 14.224796-30.859005 30.859005 0 16.587873 14.224796 30.859005 30.859005 30.859004 17.792579 0 30.859005-14.224796 30.859004-30.859004-0.046335-17.838914-13.066425-30.859005-30.859004-30.859005z m0 0"  horiz-adv-x="2085" />

    
    <glyph glyph-name="infocopy" unicode="&#58884;" d="M512-124.5184c280.064 0 507.648 227.584 507.648 507.648 0 280.064-227.584 507.5968-507.648 507.5968C231.936 890.7264 3.4816 663.1936 3.4816 383.1296S231.936-124.5184 512-124.5184zM512 820.736c240.64 0 436.736-196.096 436.736-436.736 0-240.64-196.096-436.736-436.736-436.736-240.64 0-436.736 196.096-436.736 436.736 0 240.64 196.096 436.736 436.736 436.736zM427.1104 159.9488c-20.1216 0-35.8912-15.7696-35.8912-35.84 0-20.1728 15.7696-35.9424 35.84-35.9424h235.52c20.0704 0 35.84 15.7696 35.84 35.8912 0 20.1216-15.7696 35.84-35.84 35.84h-82.3296V475.9552c0 20.1216-15.7184 35.84-35.84 35.84H427.0592c-20.1216 0-35.8912-15.7184-35.8912-35.84 0-20.1216 15.7696-35.8912 35.84-35.8912H509.44v-280.064H427.1104zM496.2304 629.0432m-57.7536 0a57.7536 57.7536 0 1 1 115.5072 0 57.7536 57.7536 0 1 1-115.5072 0Z"  horiz-adv-x="1024" />

    
    <glyph glyph-name="youxiang" unicode="&#58950;" d="M885.514 688.142h-747.03c-41.378 0-75.053-33.675-75.053-75.135v-458.074c0-41.485 33.675-75.075 75.053-75.075h747.03c41.55 0 75.054 33.59 75.054 75.075V613.007c-0.001 41.46-33.504 75.135-75.054 75.135z m-17.96-53.8L569.653 370.2c-26-23.193-45.256-34.715-57.654-34.715-12.395 0-31.652 11.522-57.653 34.715L156.444 634.343h711.11z m-748.296-462.68V585.54l232.658-204.068-232.658-209.81z m39.125-38.006l233.532 207.39 38.257-33.59c22.233-19.422 49.616-29.4 81.826-29.4 32.38 0 59.592 9.978 81.911 29.4l38.254 33.59 233.54-207.39h-707.32z m746.388 38.007l-232.66 209.81 232.66 204.067v-413.877z m0 0"  horiz-adv-x="1024" />

    
    <glyph glyph-name="rili" unicode="&#58978;" d="M784 736H672v32c0 17.6-14.4 32-32 32s-32-14.4-32-32v-32H416v32c0 17.6-14.4 32-32 32s-32-14.4-32-32v-32H240c-88 0-160-72-160-160v-448c0-88 72-160 160-160h544c88 0 160 72 160 160V576c0 88-72 160-160 160z m-544-64h112v-32c0-17.6 14.4-32 32-32s32 14.4 32 32v32h192v-32c0-17.6 14.4-32 32-32s32 14.4 32 32v32h112c52.8 0 96-43.2 96-96v-32H144v32c0 52.8 43.2 96 96 96z m544-640H240c-52.8 0-96 43.2-96 96V480h736v-352c0-52.8-43.2-96-96-96zM288 224h64c17.6 0 32-14.4 32-32s-14.4-32-32-32h-64c-17.6 0-32 14.4-32 32s14.4 32 32 32z m192 0h64c17.6 0 32-14.4 32-32s-14.4-32-32-32h-64c-17.6 0-32 14.4-32 32s14.4 32 32 32z m192 0h64c17.6 0 32-14.4 32-32s-14.4-32-32-32h-64c-17.6 0-32 14.4-32 32s14.4 32 32 32zM288 384h64c17.6 0 32-14.4 32-32s-14.4-32-32-32h-64c-17.6 0-32 14.4-32 32s14.4 32 32 32z m192 0h64c17.6 0 32-14.4 32-32s-14.4-32-32-32h-64c-17.6 0-32 14.4-32 32s14.4 32 32 32z m192 0h64c17.6 0 32-14.4 32-32s-14.4-32-32-32h-64c-17.6 0-32 14.4-32 32s14.4 32 32 32z"  horiz-adv-x="1024" />

    
    <glyph glyph-name="xinxi-" unicode="&#58920;" d="M572.16 0a26.24 26.24 0 0 0-17.28 6.4 25.6 25.6 0 0 0 0 35.84l115.2 128a90.24 90.24 0 0 0 67.2 30.08h42.88A116.48 116.48 0 0 1 896 314.88V601.6a116.48 116.48 0 0 1-116.48 115.2h-534.4A116.48 116.48 0 0 1 128 601.6v-273.92a128 128 0 0 1 128-128h192a25.6 25.6 0 0 0 0-51.2H256a180.48 180.48 0 0 0-181.12 179.2V601.6A167.68 167.68 0 0 0 245.12 768h533.76a167.68 167.68 0 0 0 167.68-166.4v-286.72a167.68 167.68 0 0 0-167.68-166.4H736a37.76 37.76 0 0 1-28.8-12.8l-115.84-128a24.96 24.96 0 0 0-19.2-7.68zM384 467.84H264.96a24.96 24.96 0 0 0-25.6 24.96 25.6 25.6 0 0 0 25.6 25.6H384a25.6 25.6 0 0 0 25.6-25.6 24.96 24.96 0 0 0-25.6-24.96z m396.16 0H661.12a24.96 24.96 0 0 0-25.6 24.96 25.6 25.6 0 0 0 25.6 25.6h117.76a25.6 25.6 0 0 0 25.6-25.6 24.96 24.96 0 0 0-25.6-24.96z"  horiz-adv-x="1024" />

    
    <glyph glyph-name="tongxunlu" unicode="&#58904;" d="M774.420063 175.749216l-185.780565 73.429467s-35.310345 12.840125-48.15047 28.890283c-9.630094 9.630094-9.630094 28.890282 0 54.570532 6.420063 25.680251 102.319749 134.420063 102.319749 230.31975 0 150.470219-99.109718 272.050157-220.689655 272.050156s-220.689655-121.579937-220.689655-272.050156c0-92.689655 86.269592-205.040752 95.899687-223.899687 9.630094-19.260188 6.420063-51.360502 0-60.990595-12.840125-12.840125-57.780564-28.890282-57.780565-28.890283l-169.730407-73.429467C32.100313 159.69906 0 124.789969 0 83.059561v-19.260188c0-44.940439 38.520376-73.429467 83.059561-73.429467h678.520376c44.940439 0 83.059561 28.890282 83.059561 73.429467v19.260188c0.401254 41.730408-31.69906 79.84953-70.219435 92.689655z m-31.69906 313.780565c-19.260188 0-35.310345 9.630094-35.310345 32.100313s16.050157 32.100313 35.310345 32.100314h246.369906c19.260188 0 35.310345-9.630094 35.310345-32.100314s-16.050157-32.100313-35.310345-32.100313h-246.369906z m50.959248-140.840126c-19.260188 0-35.310345 9.630094-35.310345 32.100314s16.050157 32.100313 35.310345 32.100313h195.410658c19.260188 0 32.100313-9.630094 32.100314-32.100313s-16.050157-32.100313-35.310345-32.100314h-192.200627z m67.410658-131.210031c-19.260188 0-35.310345 9.630094-35.310345 32.100313s16.050157 32.100313 35.310345 32.100314h131.210031c19.260188 0 35.310345-9.630094 35.310345-32.100314s-16.050157-32.100313-35.310345-32.100313h-131.210031z"  horiz-adv-x="1027" />

    
    <glyph glyph-name="xinxi1" unicode="&#58897;" d="M992.71168 375.47008v255.11936c0 21.53472 0.84992 43.264 0 64.78336-2.51392 63.58016-47.6416 110.11072-109.45536 116.82304a38.26176 38.26176 0 0 1-7.57248 0.73728 40.2688 40.2688 0 0 1-4.23424 0H172.3392c-61.62432 0-120.9088-23.38816-137.02656-90.2144-10.4192-43.19744-3.14368-94.96576-3.14368-138.70592v-233.59488c0-42.88512-3.15904-87.08608 0.4864-129.88928 5.26336-61.7216 55.97184-105.44128 116.54144-108.06272 23.424-1.01376 191.70304 0 252.27776 0l81.23904-140.71296c12.89216-22.33344 46.55104-22.33344 59.4432 0l81.24416 140.71296c60.57472 0 228.85888-1.06496 252.27776 0 60.55424 2.74944 111.24224 46.22336 116.54656 108.06272 4.37248 51.02592 0.4864 103.80288 0.4864 154.94144z m-68.84352-145.43872c-3.33312-42.87488-37.49376-48.72192-72.27904-48.72192-80.67072 0-162.11968 3.43552-242.7136 0-36.12672-1.54112-48.00512-39.43936-63.8976-66.96448l-31.72864-54.95296c-18.8928 35.51232-38.016 71.37792-61.11744 103.03488-15.86688 21.73952-35.4304 18.88256-59.0848 18.88256h-221.72672c-29.97248 0-62.40256 3.0976-69.632 39.67488-2.92864 14.84288-0.68608 32.02048-0.68608 46.96064v408.3712s-1.81248 63.57504 48.18944 67.77344c33.5872 2.816 595.13344 0 726.48192 0 41.62048-2.26304 48.18944-36.02432 48.18944-68.98688v-382.72512s1.59744-41.84064 0.00512-62.34624zM266.60352 461.48096m-60.81024 0a60.81024 60.81024 0 1 1 121.62048 0 60.81024 60.81024 0 1 1-121.62048 0ZM512.44032 461.48096m-60.81024 0a60.81024 60.81024 0 1 1 121.62048 0 60.81024 60.81024 0 1 1-121.62048 0ZM758.27712 461.48096m-60.81024 0a60.81024 60.81024 0 1 1 121.62048 0 60.81024 60.81024 0 1 1-121.62048 0Z"  horiz-adv-x="1024" />

    
    <glyph glyph-name="ziyuan" unicode="&#58908;" d="M511.991-127.97648A99.120853 99.120853 0 0 1 612.545851-27.21863H410.82215a99.120853 99.120853 0 0 1 101.16885-100.75985z m329.515511 327.672514V460.809646a334.635503 334.635503 0 0 1-256.813619 323.57652V817.154117a73.93089 73.93089 0 0 1-55.089918 76.797886 74.33989 74.33989 0 0 1-91.337865-76.183887v-34.609949A333.611505 333.611505 0 0 1 181.450491 460.195647V198.671035L81.920638 96.069187v-51.403923h860.140724v51.403923z"  horiz-adv-x="1024" />

    
    <glyph glyph-name="binzagrlandlineicon" unicode="&#58929;" d="M619.849143 566.857143c72.411429-55.259429 260.388571-315.136 309.101714-410.550857v-118.308572H73.142857v118.308572C121.856 251.757714 309.796571 511.597714 382.244571 566.857143h237.604572zM493.714286 420.571429a128 128 0 1 1 0-256 128 128 0 0 1 0 256z m0-36.571429a91.428571 91.428571 0 1 0 0-182.857143 91.428571 91.428571 0 0 0 0 182.857143z m203.885714 365.714286c90.587429-8.850286 152.502857-35.657143 185.782857-80.384 33.243429-44.763429 51.346286-98.523429 54.308572-161.316572h-209.042286V566.857143c-3.181714 41.398857-23.405714 62.098286-60.525714 62.098286H342.674286c-35.108571 0-55.04-18.468571-59.867429-55.405715L282.185143 566.857143v-58.88H73.142857c2.925714 62.829714 21.065143 116.589714 54.345143 161.353143 31.744 42.715429 89.6 69.083429 173.568 79.067428L313.234286 749.714286h384.365714z"  horiz-adv-x="1024" />

    
    <glyph glyph-name="xinxi2" unicode="&#58894;" d="M290.365353-127.999693a34.18111 34.18111 0 0 0-23.951353 9.666557 34.27327 34.27327 0 0 0-7.946238 37.703669c17.858555 43.950067 34.23231 93.419492 38.082549 115.077085-3.276799 6.768638-4.853759 12.697596-4.853759 18.728955a34.45759 34.45759 0 0 0 34.41663 34.41663c13.004796 0 25.108472-6.461438 32.40959-17.264635 6.143998-9.103357 15.421435-22.855673-4.300798-88.678374l-1.67936-5.591038 5.079039 2.887679c61.695981 35.041269 102.492129 67.17438 109.117407 85.954534 4.802559 13.506556 17.387515 22.231033 32.10239 22.231034 2.099199 0 4.239359-0.17408 6.348798-0.5632 1.65888 0.16384 2.416639 0.36864 3.174399 0.58368 1.25952 0.33792 2.437119 0.6656 3.624959 0.665599 244.377527 0 443.197307 165.85723 443.197307 369.71509 0 203.827139-198.80954 369.663889-443.187067 369.663889S68.802539 661.35047 68.802539 457.513092c0-109.762527 60.989422-214.128576 167.33179-286.300075a34.47807 34.47807 0 0 0 9.154557-47.800305 34.34495 34.34495 0 0 0-47.790065-9.134077C71.976938 199.495889 0 324.608171 0 457.513092 0 699.299899 229.683131 896 511.999846 896s511.999846-196.700101 511.999847-438.486908c0-237.578169-225.812412-434.11443-503.357289-438.128509l-1.18784-0.02048-0.67584-0.96256c-45.936626-64.942061-175.769547-126.218202-214.466495-143.452117a34.50879 34.50879 0 0 0-13.946876-2.949119z m72.191978 467.4149c-19.404794 0-35.205109 14.776316-35.205109 32.94207 0 18.145275 15.800315 32.91135 35.205109 32.91135h229.150651c19.404794 0 35.205109-14.766076 35.20511-32.91135 0-18.165755-15.800315-32.94207-35.20511-32.94207H362.557331z m-0.16384 140.369878c-19.322874 0-35.041269 14.766076-35.041269 32.91135 0 18.165755 15.718395 32.94207 35.041269 32.94207h299.181991c19.322874 0 35.061749-14.776316 35.061749-32.94207 0-18.145275-15.728635-32.91135-35.061749-32.91135H362.393491z"  horiz-adv-x="1024" />

    
    <glyph glyph-name="xinxi3" unicode="&#58917;" d="M868.225 863.65H167.572A156.121 156.121 0 0 1 11.888 707.967v-453.363c0-85.852 69.977-155.685 155.684-155.685h89.493l66.191-171.413c7.792-15.51 19.515-23.301 35.026-23.301 15.51 0 31.093 7.791 35.025 23.301l66.191 171.413h400.79c85.706 0 155.83 69.833 155.83 155.685V708.039c7.718 85.561-62.26 155.612-147.893 155.612z m77.769-608.974a77.915 77.915 0 0 0-77.77-77.843h-428.24c-15.511 0-31.094-7.937-34.953-23.301L362.14 48.31l-42.744 105.149c-7.792 15.364-19.442 23.302-35.025 23.302h-116.8a77.988 77.988 0 0 0-77.842 77.842V708.039c0 42.744 35.098 77.842 77.842 77.842h700.653c42.744 0 77.769-35.098 77.769-77.842v-453.363zM226.773 475.022a54.613 54.613 0 1 1 109.226 0 54.613 54.613 0 1 1-109.226 0z m229.084 0a54.613 54.613 0 1 1 109.227 0 54.613 54.613 0 1 1-109.227 0z m230.614 0a54.613 54.613 0 1 1 109.227 0 54.613 54.613 0 1 1-109.227 0z"  horiz-adv-x="1024" />

    
    <glyph glyph-name="zu35177" unicode="&#58934;" d="M86.670463 96.973075a1561.55294 1561.55294 0 0 0-26.159839 45.510952 511.934216 511.934216 0 1 0 188.494179-197.708995l-24.060908 14.129385-125.270303-34.197206a38.395066 38.395066 0 0 0-47.149141 47.149141l34.094818 125.116723z m78.377128-4.556215l-20.477368-75.971037 75.971037 20.477368a38.395066 38.395066 0 0 0 29.436218-3.839506q19.4535-11.262553 38.804614-22.729879a434.78573 434.78573 0 1 1-160.337797 168.17039c4.453828-8.293334 15.358026-27.388481 32.814983-56.671118a38.395066 38.395066 0 0 0 3.73712-29.436218zM340.180287 126.153325a38.395066 38.395066 0 1 0 49.094491 59.026015 191.975331 191.975331 0 0 1 245.267683 0 38.395066 38.395066 0 0 0 49.094492-59.026015 268.765464 268.765464 0 0 0-343.456666 0z"  horiz-adv-x="1024" />

    
    <glyph glyph-name="tel_zuoji1" unicode="&#59083;" d="M1412.908279 438.807642a95.367543 95.367543 0 0 0-31.055383-68.479084c-18.711851-17.218048-43.241672-26.731216-69.108054-26.731216l-3.380713 0.078621-259.056927 40.961657c-59.359023 12.343532-95.446164 50.081719-94.581331 98.669634l1.493803 74.768782c-77.677768 58.651432-147.886519 71.781176-229.02362 73.353601l-9.67041 0.157242c-91.043375 1.808288-177.369477 3.695197-258.5852-65.019751l-1.415182-73.432221c-0.943455-48.666537-38.131293-84.989541-97.09721-94.817194l-259.135548-30.819519a82.237798 82.237798 0 0 0-66.120448 18.790472A103.465529 103.465529 0 0 0 0.006293 466.32507l2.673122 142.697518c0.393106 20.127033 34.907823 60.852826 66.828039 90.257164C152.21698 775.69958 346.175535 902.279748 713.022158 895.125216c538.319509-10.535244 703.030969-288.225401 702.559242-313.620055l-2.673121-142.697519z m-159.286597 160.544536c-70.208751 66.670796-187.747479 178.15569-526.447704 178.15569h-8.019365c-368.419048-1.886909-559.783103-158.89349-584.07706-191.835783-4.638652-27.438807-6.761425-65.648721 1.100697-90.886132l202.528269 35.065065 2.280015 114.315257 8.176607 7.469016c99.927573 90.72889 397.587521 93.323391 410.166917 93.402012 82.001935 0 250.958941-63.05422 323.683572-120.447712l8.33385-6.525562 13.994577-109.833847c20.048412-8.805577 91.750966-18.397366 162.195582-21.542215 5.267622 11.242835 12.422153 45.285824 14.466305 86.483344-8.962819 7.783501-18.161502 16.510457-28.382262 26.180867z m-1063.666516-572.362498c55.585204 119.425637 250.408593 320.774587 293.96475 365.038335l16.117351 82.001935h409.459326l16.038729-81.766071c42.691324-42.298218 232.482954-234.212621 292.864053-364.173502l1.808288-5.346243c12.500774-69.265297-22.564291-130.275365-26.573973-137.03679l-7.862122-12.972502H223.133322l-7.783501 12.89388c-1.651046 2.5945-39.703717 65.727342-27.0457 135.936094l1.651045 5.424864z m121.54841-29.482958h786.369465a530.536008 530.536008 0 0 1-0.62897 19.891169c-5.110379 18.161502-129.96088 170.608052-273.130126 331.860179H585.341293l-273.837717-340.036786v-11.714562z m396.644066 309.767615c80.901238 0 146.785822-65.334236 146.785822-145.763746a146.549958 146.549958 0 0 0-146.785822-145.842367A146.471337 146.471337 0 0 0 561.36182 161.510591c0 80.42951 65.805963 145.763746 146.785822 145.763746z m-0.078621-203.393102a57.86522 57.86522 0 0 1 58.022462 57.629356 57.86522 57.86522 0 0 1-58.022462 57.629356 57.86522 57.86522 0 0 1-57.943841-57.629356c0-31.762974 25.945003-57.629356 57.943841-57.629356z"  horiz-adv-x="1416" />

    
    <glyph glyph-name="shouhui" unicode="&#58892;" d="M108.544 793.6h808.448c24.576 0 37.376-12.288 37.376-37.376s-12.288-37.376-37.376-37.376H108.544c-24.576 0-37.376 12.288-37.376 37.376s12.288 37.376 37.376 37.376zM108.544 48.64h808.448c24.576 0 37.376-12.288 37.376-36.864 0-24.576-12.288-37.376-37.376-37.376H108.544c-24.576 0-37.376 12.288-37.376 37.376 0 24.576 12.288 36.864 37.376 36.864zM506.368 550.912H916.48c24.576 0 37.376-12.288 37.376-37.376 0-24.576-12.288-37.376-37.376-37.376H506.368c-24.576 0-37.376 12.288-37.376 37.376 0.512 25.088 12.8 37.376 37.376 37.376zM506.368 286.72H916.48c24.576 0 37.376-12.288 37.376-37.376 0-24.576-12.288-37.376-37.376-37.376H506.368c-24.576 0-37.376 12.288-37.376 37.376 0.512 25.088 12.8 37.376 37.376 37.376zM83.456 406.528l209.408 139.264c17.92 12.288 42.496-1.024 42.496-22.528v-279.04c0-22.016-24.064-34.816-42.496-22.528l-209.408 139.264c-16.384 11.264-16.384 34.816 0 45.568z"  horiz-adv-x="1024" />

    
    <glyph glyph-name="right" unicode="&#58880;" d="M422.71015625 364.59550780999996l443.35810547-430.61660156 68.33671875 67.94033203-375.35273438 365.33759765 376.74931642 401.50019532-73.37197265 65.24296875-439.71943361-469.40449219zM601.29072266 768.75703126l-73.37109375 65.24296874-439.72119141-469.40537109 443.35810548-430.61484375 68.33671874 67.94033203-375.35273438 365.33759766 376.75019532 401.5001953z"  horiz-adv-x="1025" />

    
    <glyph glyph-name="gengduobeifen" unicode="&#58896;" d="M156.013714-66.85257100000001A55.003429 55.003429 0 0 0 117.028571 27.062857000000008l362.569143 362.569143-362.569143 362.642286A55.003429 55.003429 0 0 0 194.925714 830.025143l372.297143-372.297143a96.329143 96.329143 0 0 0 0-136.045714l-372.297143-372.370286a54.857143 54.857143 0 0 0-38.912-16.091429zM483.547429-66.85257100000001a55.003429 55.003429 0 0 0-38.912 93.915428l362.569142 362.642286-362.569142 362.569143A55.003429 55.003429 0 0 0 522.386286 830.025143l372.370285-372.297143a96.036571 96.036571 0 0 0 0-136.045714l-372.297142-372.370286a54.857143 54.857143 0 0 0-38.912-16.091429z"  horiz-adv-x="1024" />

    
    <glyph glyph-name="tishi" unicode="&#58909;" d="M642.1 56c0-67.1-57.1-119.3-128.4-119.3-71.3 0-128.4 52.2-128.4 119.3h256.8m-42.8 696.2c0 44.8-37.1 79.6-85.6 79.6-48.5 0-85.6-34.8-85.6-79.6v-12.4c-117-37.3-214-156.6-214-295.9v-109.4s0-156.6-42.8-159.1c-25.7 0-42.8-17.4-42.8-39.8s20-39.8 42.8-39.8h684.8c22.8 0 42.8 17.4 42.8 39.8s-20 39.8-42.8 39.8c-42.8 0-42.8 159.1-42.8 159.1V443.9c0 139.2-91.3 256.1-214 295.9v12.4"  horiz-adv-x="1024" />

    
    <glyph glyph-name="tel" unicode="&#58919;" d="M511.938 565.497c-4.239 0-8.388-0.402-12.583-0.647v-77.121c4.217 0.379 8.254 1.271 12.583 1.271 76.564 0 138.616-62.777 138.616-140.222 0-13.352-2.432-26.012-5.89-38.248h77.969c2.187 12.436 3.524 25.175 3.524 38.248 0.001 119.676-95.893 216.719-214.219 216.719v0zM511.938 718.479c-4.239 0-8.366-0.502-12.583-0.647v-76.496c4.195 0.189 8.344 0.647 12.583 0.647 160.077 0 289.846-131.265 289.846-293.205 0-13.006-1.138-25.699-2.745-38.248h76.374c1.294 12.57 1.964 25.332 1.964 38.248 0 204.181-163.601 369.701-365.44 369.701v0zM644.798 197.948c-41.951 16.241-81.683 37.121-127.773-6.379-28.443-26.86-48.99-23.927-67.596-13.921-18.583 9.995-133.061 128.253-148.7 166.936-15.617 38.673-7.184 43.893 0 55.627 7.184 11.734 57.021 39.129 27.038 125.197-30.005 86.067-53.541 150.874-175.737 0-12.672-15.649 0-83.468 0-83.468s86.145-284.917 378.513-403.399c45.376-18.383 147.874 10.73 189.256 83.479 20.28 35.627-9.145 50.451-75.001 75.927v0zM644.798 197.948z"  horiz-adv-x="1024" />

    
    <glyph glyph-name="kefu" unicode="&#58938;" d="M804.278 529.689c-32.087 134.201-149.477 237.566-292.388 237.566-146.854 0-267.617-100.472-292.387-237.565-37.155-7.103-54.823-26.341-54.823-54.824v-127.919c0-31.945 23.806-54.823 54.823-54.823 17.489 0 44.543 5.337 54.823 18.274 24.842-66.958 110.145-149.298 129.080-151.602 9.44-1.142 14.972-1.66 8.637 6.14-9.369 11.51-68.296 68.992-79.861 149.601-5.104 35.479 20.987 70.313 51.325 76.060 48.755 9.245 97.224 19.792 145.979 28.875 30.981 5.747 52.147 23.075 65.103 51.932 3.034 6.746 6.674 20.344 8.674 40.011 1.785 9.78 11.101 3.159 11.492 2.641 0 0 69.563-23.736 79.879-148.836 6.282-75.879-62.248-177.281-69.956-189.113 0.483 0.732 0.090-10.243 6.568-6.638 57.625 32.355 101.83 86.409 122.264 151.423 8.262-12.528 21.218-21.557 36.246-24.699-24.11-111.842-121.96-181.833-243.204-192.47-7.263 18.382-25.145 31.427-46.15 31.427-27.447 0-49.683-22.165-49.683-49.442 0-27.305 22.235-49.434 49.683-49.434 22.111 0 40.635 14.491 47.078 34.408 140.322 11.599 252.823 96.662 276.308 228.775 20.755 8.834 35.318 23.27 35.318 47.488v127.92c-0.001 47.007-54.611 53.966-54.825 54.823zM731.182 493.141c-36.603 101.079-107.719 164.468-219.292 164.468-111.109 0-200.623-64.049-237.565-164.468-1.838 2.284-16.168 16.276-18.274 18.274 20.914 122.37 131.275 201.016 255.839 201.016 123.959 0 215.972-79.504 237.566-201.016-7.69-10.529-18.273-18.274-18.273-18.274z"  horiz-adv-x="1024" />

    
    <glyph glyph-name="qq" unicode="&#59337;" d="M512 780.9c66.5 0 129.8-24.2 178.2-68 47.8-43.3 76.6-101.6 81.1-164.3l0.8-10.6 5-9.3c4.9-9.2 7.6-21 7.6-33.2v-1.8l-0.2-10.7 4.1-9.8c2.5-6 4.9-12 6.9-17.9l4.1-11.8 9.1-8.5c23.6-21.9 43.6-58.4 54.8-100 8-29.9 10-65.1 5.4-96.6-3.1-21.3-8.5-36-12.8-44.1-7.2 2.4-16.3 6.3-26.3 12.3l-41 24.6-26.4-39.9c-3.1-4.7-6.4-9.4-9.7-13.8l-31.6-42.3 44-29.2c20.3-13.5 31.9-29.5 31.9-44 0-15.3-12.8-32.1-35.1-46-29.5-18.4-71.4-29-114.9-29-41.5 0-80.6 9.3-110.1 26.2L512 27.5l-24.8-14.2c-29.5-16.9-68.6-26.2-110.1-26.2-43.5 0-85.4 10.6-114.9 29-22.3 13.9-35.1 30.7-35.1 46 0 14.4 11.6 30.5 31.9 44l44 29.2-31.6 42.3c-3.3 4.4-6.6 9.1-9.7 13.8l-26.4 39.9-41-24.6c-10.1-6-19.1-9.9-26.3-12.3-4.2 8-9.7 22.7-12.8 44.1-4.6 31.5-2.6 66.7 5.4 96.6 11.2 41.6 31.1 78.1 54.8 100l9.1 8.5 4.1 11.8c2 5.9 4.4 11.9 6.9 17.9l4.1 9.8-0.2 10.6v1.8c0 12.2 2.7 23.9 7.6 33.2l5 9.3 0.8 10.6c4.5 62.7 33.3 121.1 81.1 164.3 48.3 43.8 111.6 68 178.1 68m0 50c-163.8 0-297.9-123-309.2-278.7-8.5-15.9-13.5-35.5-13.5-56.6v-2.8c-2.9-6.9-5.6-13.8-8-20.9-29.3-27.2-54.9-71.1-69.1-123.7-25.4-94.8 3.2-206.4 48-206.4 1.8 0 3.7 0.2 5.5 0.6 16 3.2 35 10.2 54.2 21.7 3.6-5.5 7.4-10.8 11.3-16.1-33.6-22.4-54.3-52.5-54.3-85.6 0-69 89.5-125 200-125 52 0 99.4 12.4 135 32.8 35.6-20.3 82.9-32.8 135-32.8 110.5 0 200 56 200 125 0 33.1-20.6 63.2-54.3 85.6 3.9 5.3 7.7 10.6 11.3 16.1 19.2-11.5 38.2-18.5 54.2-21.7 1.9-0.4 3.7-0.6 5.5-0.6 44.8 0 73.4 111.6 48 206.4-14.1 52.7-39.7 96.5-69.1 123.7-2.5 7.1-5.2 14.1-8 20.9v2.8c0 21.2-5 40.7-13.5 56.6C809.9 707.9 675.8 830.9 512 830.9z"  horiz-adv-x="1024" />

    
    <glyph glyph-name="weixin" unicode="&#58988;" d="M505.3 485.1c16.3 0 27 11.5 27 28.2s-11 28.2-27 28.2c-15.6 0-32.3-10.8-32.3-28.2 0-17.1 16.7-28.2 32.3-28.2zM381 513.7c0 16.7-11.1 28.2-27.3 28.2-15.8 0-32.7-10.8-32.7-28.2 0-17.5 16.9-28.2 32.7-28.2 16.5-0.4 27.3 11.1 27.3 28.2zM843.4 310.4c0 43.6-19.5 85.7-54.5 118.4-34.7 32.3-81 52.2-130.1 56.5v2.3C638 583.5 535.2 656 419.1 656c-131.7 0-238.4-91.6-238.4-204.2 0-60 30.4-114.5 88.4-157l-19.9-60c-1.6-4.7 0-9.4 3.5-12.5s9-3.5 12.9-1.6l75.6 37.8 9-1.9h0.4c23.4-4.7 39.6-8 64.6-8 4.7 0 26.2 1.3 32.4 3.3 28.8-70.1 106-117.3 192.5-117.3 21.8 0 44 5.1 66.2 10.5l58.1-31.6c1.6-0.8 3.5-1.6 5.5-1.6 2.7 0 5.5 0.8 7.4 2.7 3.9 3.1 5.1 7.8 3.9 12.5l-14.8 48.7c49.3 39.5 77 87.4 77 134.6zM741.5 193.5c-3.9-2.8-5.5-7.9-3.9-12.2l8.3-28-35.5 19.4c-1.6 0.8-3.6 1.6-5.5 1.6-0.8 0-2 0-2.8-0.4-20.5-5.1-41.9-10.7-62.8-10.7-96 0-174.2 66-174.2 146.9S543.2 457 639.2 457c94.4 0 173.8-67.2 173.8-147 0.4-40.2-24.9-81.7-71.5-116.5zM298.3 300.6c1.6 4.7 0 9.7-4.3 12.9-54.5 38.2-82.2 84.5-82.2 137.9 0 96.2 92.7 174.5 206.9 174.5 99.7 0 189-60.8 208.4-141.4-106.4-2.3-192.5-77.9-192.5-169.5 0-12.1 1.6-24.5 5.1-37-0.4 0-2.4-0.2-2.8-0.2-6.2-0.4-11.7-0.6-18.3-0.6-22.2 0-41.3 3.9-61.9 8.2l-12.5 2.3c-2.3 0.4-5.1 0-7.4-0.8l-51.8-26 13.3 39.7zM572.7 385.1c-10.7 0-21.5-11.5-21.5-23s10.7-23 21.5-23c16.3 0 26.3 11.9 26.3 23s-10 23-26.3 23zM690.1 385.1c-10.2 0-20-11.5-20-23s9.8-23 20-23c15.4 0 24.9 11.9 24.9 23s-9.5 23-24.9 23z"  horiz-adv-x="1024" />

    
    <glyph glyph-name="huishouzhan1" unicode="&#58910;" d="M860.724343 739.867389H746.993528L733.130102 838.517501c-4.412627 31.615374-34.151367 57.482499-66.138687 57.482499H357.042399c-31.98732 0-61.709153-25.867125-66.172501-57.583939l-13.795799-98.548672H163.30947C99.098138 739.867389 47.059569 724.245674 47.059569 674.523313v-29.94162h929.863955V674.523313c0 49.722362-52.004755 65.344076-116.199181 65.344076zM359.375512 837.350944h305.265883l13.626733-97.483555H345.748778zM880.099326 572.170651H143.934487c-42.604676 0-74.389116-34.743099-70.500595-77.178708L136.918241-50.770572c3.837802-42.452516 41.894598-77.161802 84.533086-77.161802h581.114252c42.621582 0 80.678378 34.726192 84.533087 77.161802l63.450535 545.762515c3.888522 42.452516-27.862105 77.178708-70.449875 77.178708z m-64.803064-122.217937a26.205257 26.205257 0 0 0-26.222163-26.222163H243.801876a26.205257 26.205257 0 0 0-26.222164 26.222163 26.222164 26.222164 0 0 0 26.222164 26.222164h545.272223a26.222164 26.222164 0 0 0 26.222163-26.222164z"  horiz-adv-x="1024" />

    
    <glyph glyph-name="caidanguanli" unicode="&#58907;" d="M252.8 304.7h182.1c31.1 0 52.1-21 52.1-52v-232.8c0-31-31.1-52-62.2-52H200.7c-31.1 0-51.2 21-51.2 52V252.7c0 31 21 52 52.1 52h51.2z m389.8 0h233.3c31.1 0 52.1-26.5 52.1-57.5v-223.7c0-31-24.7-55.7-55.8-55.7H648.1c-31.1 0-57.6 21-57.6 52V252.7c0 31 26.5 51.1 57.6 51.1l-5.5 0.9z m0 440.1h233.3c31.1 0 52.1-18.3 52.1-49.3v-234.7c0-31-21-52-52.1-52H642.6c-31.1 0-52.1 21-52.1 52V693.7c-0.1 31 21 51.1 52.1 51.1zM113.8 622.5L273 781.3c22 21.9 57.6 21.9 79.6 0L510 622.4c22-21.9 22-57.5 0-79.4L351.7 385c-22-21.9-57.6-21.9-79.6 0L113.8 543.9c-21.1 22-21.1 57.6 0 78.6z"  horiz-adv-x="1024" />

    
    <glyph glyph-name="zhaobiao2" unicode="&#58900;" d="M625.473913 337.612507l-86.147032-34.629705c-5.358031-2.12643-8.04728-8.338922-5.962805-13.801331 2.084475-5.482875 8.193613-8.193613 13.551644-6.087649l86.147032 34.629705c5.378497 2.12643 8.04728 8.338922 5.962805 13.801331C636.961548 337.029222 630.832967 339.759403 625.473913 337.612507zM484.287333 410.39516l-86.126566 34.629705c-5.378497 2.12643-11.487635-0.583285-13.57211-6.067182-2.085498-5.481851 0.583285-11.69639 5.961782-13.82282l86.148056-34.608216c5.378497-2.12643 11.466146 0.583285 13.550621 6.045693C492.356103 402.034748 489.665831 408.289196 484.287333 410.39516zM484.287333 303.649997l-86.126566 34.629705c-5.378497 2.12643-11.487635-0.604774-13.57211-6.067182-2.085498-5.482875 0.583285-11.69639 5.961782-13.82282l86.148056-34.609239c5.378497-2.14792 11.466146 0.583285 13.550621 6.067182C492.356103 295.310052 489.665831 301.544033 484.287333 303.649997zM625.473913 444.35767l-86.147032-34.608216c-5.358031-2.14792-8.04728-8.360412-5.962805-13.82282 2.084475-5.482875 8.193613-8.194636 13.551644-6.087649l86.147032 34.629705c5.378497 2.12643 8.04728 8.338922 5.962805 13.801331C636.961548 443.774385 630.832967 446.4841 625.473913 444.35767zM819.658544 568.116321 542.141996 718.977237c-9.402137 5.108345-19.72218 7.67275-30.042223 7.67275-10.340509 0-20.682042-2.564405-30.063713-7.67275L204.476533 568.03241c-20.911262-11.341303-33.982976-33.608445-33.982976-57.876152l0-292.632827c0-24.246217 13.071713-46.51336 34.004465-57.896618l277.538037-150.84045c9.381671-5.107321 19.72218-7.671727 30.042223-7.671727 10.340509 0 20.640086 2.564405 30.063713 7.671727l277.538037 150.903895c20.912285 11.404748 33.983999 33.649378 33.983999 57.918108L853.664032 510.240169C853.664032 534.486386 840.591295 556.753529 819.658544 568.116321zM682.870134 274.356834c0-8.734942-5.316076-16.554024-13.425777-19.805068l-136.01786-53.79009c-24.01802-10.006911-21.014616-9.673313-43.031049-0.666172l-135.704728 54.457286c-8.089235 3.252067-13.406335 11.091616-13.406335 19.826558L341.284385 515.702578c0 6.296403 3.106758 12.175297 8.319479 15.72003 5.211698 3.523243 11.863189 4.232394 17.720593 1.918699l136.808876-54.747905c5.108345-2.043542 10.778484-2.043542 15.866363 0l136.849808 54.747905c5.859451 2.314719 12.467963 1.605567 17.679661-1.918699 5.212722-3.543709 8.338922-9.423627 8.338922-15.72003L682.868087 274.356834z"  horiz-adv-x="1024" />

    
    <glyph glyph-name="yanzhengma" unicode="&#58951;" d="M819.579259 565.380741c-0.18963 0-0.379259 0-0.663704 0 0.094815 1.422222 0.18963 2.844444 0.284444 4.171852L819.2 569.552593c-27.401481 1.896296-54.897778 7.016296-78.506667 14.601481-7.68 2.275556-15.265185 4.835556-22.945185 7.585185-16.213333 4.740741-38.305185 14.222222-63.336296 27.780741-0.284444 0.094815-0.568889 0.284444-0.758519 0.379259-5.878519 3.223704-11.946667 6.542222-18.014815 10.145185-8.248889 4.740741-16.497778 9.765926-24.651852 15.075556-0.284444 0.18963-0.663704 0.379259-0.948148 0.568889-5.878519 3.792593-11.757037 7.68-17.540741 11.757037-3.792593 2.56-7.585185 5.30963-11.377778 8.059259-2.844444 2.085926-5.688889 4.077037-8.533333 6.162963-20.764444 15.54963-41.339259 32.995556-60.586667 51.768889-19.247407-18.773333-39.727407-36.219259-60.586667-51.768889-2.844444-2.180741-5.688889-4.077037-8.533333-6.162963-3.792593-2.74963-7.585185-5.499259-11.377778-8.059259-5.783704-4.077037-11.662222-7.964444-17.540741-11.757037-0.284444-0.18963-0.663704-0.379259-0.948148-0.568889-8.154074-5.30963-16.402963-10.334815-24.651852-15.075556-6.162963-3.602963-12.136296-7.016296-18.014815-10.145185-0.284444-0.094815-0.568889-0.284444-0.758519-0.379259-25.031111-13.463704-47.122963-22.945185-63.336296-27.780741-7.68-2.74963-15.36-5.30963-22.945185-7.585185-23.608889-7.585185-51.105185-12.705185-78.506667-14.601481l-0.094815 0c0.094815-1.327407 0.18963-2.74963 0.284444-4.171852-0.18963 0-0.379259 0-0.663704 0l-0.094815 0c0.758519-12.136296 1.611852-28.16 2.56-45.605926 0.18963 0 0.284444 0 0.474074 0 4.645926-64.948148 17.825185-157.392593 37.736296-211.626667 0.853333-2.37037 1.611852-4.835556 2.56-7.205926 0.379259-1.137778 0.948148-2.085926 1.327407-3.223704 13.937778-35.460741 30.90963-68.171852 50.346667-97.374815 47.122963-71.964444 109.226667-123.733333 179.674074-146.962963l0-0.379259c13.179259-4.361481 24.177778-7.016296 32.900741-8.722963 8.722963 1.706667 19.816296 4.361481 32.900741 8.722963l0 0.379259c70.447407 23.22963 132.551111 74.998519 179.674074 146.962963 19.437037 29.297778 36.408889 61.914074 50.346667 97.374815 0.379259 1.137778 0.948148 2.085926 1.327407 3.223704 0.853333 2.37037 1.611852 4.835556 2.56 7.205926 19.911111 54.328889 33.09037 146.678519 37.736296 211.626667 0.18963 0 0.379259 0 0.474074 0C818.062222 537.220741 818.915556 553.244444 819.579259 565.380741L819.579259 565.380741zM782.885926 530.583704c-0.379259-1.611852-0.663704-3.318519-0.758519-5.025185-4.266667-61.25037-16.402963-151.988148-35.84-205.842963-0.568889-1.422222-1.042963-2.939259-1.517037-4.456296-0.284444-0.948148-0.663704-1.896296-1.137778-3.034074-0.379259-0.948148-0.758519-1.896296-1.042963-2.56-14.506667-37.546667-32.521481-71.585185-53.191111-101.451852-42.382222-60.207407-96.237037-103.063704-155.591111-122.311111-1.422222-0.474074-2.844444-1.042963-4.171852-1.611852-5.973333-1.896296-11.946667-3.413333-17.635556-4.740741-5.688889 1.327407-11.567407 2.844444-17.540741 4.740741-1.327407 0.663704-2.74963 1.232593-4.171852 1.706667-59.448889 19.342222-113.208889 62.198519-155.591111 122.311111-20.66963 29.866667-38.58963 63.81037-53.096296 101.262222-0.379259 0.948148-0.758519 1.801481-1.327407 3.128889-0.379259 0.853333-0.663704 1.801481-0.948148 2.74963-0.474074 1.517037-1.042963 2.939259-1.422222 4.171852-19.531852 54.044444-31.668148 144.782222-35.934815 206.032593-0.094815 1.706667-0.379259 3.413333-0.758519 5.025185l-0.379259 6.637037c18.488889 2.844444 36.314074 6.921481 52.527407 12.041481 7.68 2.275556 15.54963 4.835556 23.893333 7.774815 19.152593 5.688889 42.856296 15.928889 68.740741 29.582222 0.474074 0.18963 0.853333 0.474074 1.232593 0.663704 6.257778 3.318519 12.61037 6.921481 18.868148 10.42963 8.154074 4.551111 16.687407 9.765926 26.168889 15.739259 0.284444 0.18963 0.758519 0.474074 0.948148 0.663704 6.257778 3.982222 12.420741 8.059259 18.299259 12.136296 3.413333 2.37037 6.921481 4.835556 10.334815 7.300741l1.896296 1.327407 3.034074 2.180741c1.991111 1.422222 3.887407 2.74963 5.688889 4.077037 13.558519 10.05037 26.832593 20.574815 39.442963 31.573333 12.705185-10.998519 25.884444-21.522963 39.348148-31.478519 1.991111-1.422222 3.887407-2.844444 5.878519-4.171852l3.223704-2.275556 1.137778-0.853333c3.602963-2.56 7.300741-5.214815 10.619259-7.395556 6.162963-4.266667 12.420741-8.343704 18.014815-11.946667l1.611852-1.042963c9.386667-5.973333 18.014815-11.188148 25.884444-15.644444 6.542222-3.792593 12.894815-7.300741 18.962963-10.524444 0.284444-0.18963 0.758519-0.379259 1.137778-0.568889 25.979259-13.748148 49.777778-24.082963 69.025185-29.771852 8.343704-2.939259 16.118519-5.499259 23.22963-7.585185 16.592593-5.214815 34.607407-9.386667 53.191111-12.231111L782.885926 530.583704zM662.281481 460.420741 484.598519 278.186667l-91.022222 93.297778c-6.257778 6.447407-16.497778 6.447407-22.85037 0-6.257778-6.447407-6.257778-16.971852 0-23.419259l102.4-104.96c3.128889-3.223704 7.300741-4.835556 11.377778-4.835556 4.171852 0 8.248889 1.611852 11.377778 4.835556l189.155556 193.896296c6.257778 6.447407 6.257778 16.971852 0 23.419259C678.779259 466.868148 668.634074 466.868148 662.281481 460.420741z"  horiz-adv-x="1024" />

    
    <glyph glyph-name="08_zizhanghaoguanli" unicode="&#58928;" d="M843.887 100.501H721.549c-26.891 104.975-116.46 186.516-227.404 204.47 26.375 19.235 48.58 43.592 65.038 71.555a223.756 223.756 0 0 0 21.676 1.06h153.435c120.558 0 219.195-95.915 219.195-213.138 0-35.17-73.433-63.947-109.602-63.947zM657.575 430.988c-25.475 0-49.679 5.289-71.527 14.793a229.522 229.522 0 0 1 4.892 47.229c0 74.293-35.478 140.508-90.843 183.551 28.547 56.531 88.333 95.448 157.478 95.448 96.851 0 175.356-76.339 175.356-170.51 0-94.171-78.505-170.511-175.356-170.511zM367.4 326.5c-96.843 0-175.357 76.346-175.357 170.508 0 94.177 78.514 170.511 175.357 170.511 96.842 0 175.352-76.334 175.352-170.511 0-94.162-78.51-170.508-175.352-170.508z m76.715-53.405c120.554 0 219.19-95.912 219.19-213.138 0-35.17-73.428-63.946-109.593-63.946H181.083c-36.165 0-109.598 28.776-109.598 63.946 0 117.226 98.637 213.138 219.195 213.138h153.435z"  horiz-adv-x="1024" />

    
    <glyph glyph-name="mima" unicode="&#58891;" d="M866 512h-34v64c0 43-8.5 84.9-25.3 124.3-16.1 38.1-39.3 72.3-68.7 101.7-29.4 29.4-63.6 52.5-101.7 68.7C596.9 887.5 555 896 512 896s-84.9-8.5-124.3-25.3C349.6 854.6 315.4 831.4 286 802s-52.5-63.6-68.7-101.7C200.5 660.9 192 619 192 576v-64h-34c-51.8 0-94-42.2-94-94v-452c0-51.8 42.2-94 94-94h708c51.8 0 94 42.2 94 94V418c0 51.8-42.2 94-94 94z m-614 64c0 69.1 27.1 134.3 76.4 183.6S442.9 836 512 836s134.3-27.1 183.6-76.4C744.9 710.3 772 645.1 772 576v-64H252v64z m648-610c0-18.7-15.3-34-34-34H158c-18.7 0-34 15.3-34 34V418c0 18.7 15.3 34 34 34h708c18.7 0 34-15.3 34-34v-452zM512 288c-16.5 0-30-13.5-30-30v-132c0-16.5 13.5-30 30-30s30 13.5 30 30V258c0 16.5-13.5 30-30 30z"  horiz-adv-x="1024" />

    
    <glyph glyph-name="yonghuming" unicode="&#58905;" d="M657.408 328.192c89.088 49.152 149.504 144.384 149.504 253.952 0 160.256-130.048 289.792-289.792 289.792S227.328 741.888 227.328 581.632c0-109.056 60.416-204.288 149.504-253.952-187.904-59.392-323.584-235.008-323.584-442.368h57.856c0 224.256 181.76 406.016 406.016 406.016s406.016-181.76 406.016-406.016h57.856c0 207.872-135.68 383.488-323.584 442.88zM285.184 581.632C285.184 710.144 389.12 814.08 517.12 814.08s231.936-103.936 231.936-231.936-103.936-232.448-231.936-232.448-231.936 103.936-231.936 231.936z"  horiz-adv-x="1024" />

    
    <glyph glyph-name="svgwrite" unicode="&#58960;" d="M805.376 814.9504 188.7232 814.9504c-52.6336 0-94.8736-42.3936-94.8736-94.6176l0-664.576c0-52.2752 42.496-94.6176 94.8736-94.6176L805.376-38.8608c52.6336 0 94.8736 42.3936 94.8736 94.6176L900.2496 720.2816C900.2496 772.608 857.8048 814.9504 805.376 814.9504zM288.768 691.2c39.3216 0 71.168-31.5904 71.168-71.168 0-39.3216-31.5904-71.168-71.168-71.168-39.3216 0-71.168 31.5904-71.168 71.168C217.6 659.3536 249.1904 691.2 288.768 691.2zM506.368 154.9824 217.6 154.9824l0 47.4112L506.368 202.3936 506.368 154.9824zM671.3344 278.7328 217.6 278.7328 217.6 326.144l453.7344 0L671.3344 278.7328zM671.3344 402.432 217.6 402.432 217.6 449.8944l453.7344 0L671.3344 402.432z"  horiz-adv-x="1024" />

    
    <glyph glyph-name="shezhi" unicode="&#58948;" d="M962.42128 509.267142h-123.858266a350.940182 350.940182 0 0 1-54.989515 92.949693l62.590221 108.411204a43.364482 43.364482 0 0 1-15.866112 59.216144L689.193255 851.306117a43.350032 43.350032 0 0 1-59.216144-15.866111l-63.449996-109.906781a352.031158 352.031158 0 0 1-105.607902 0L397.469216 835.440006a43.350032 43.350032 0 0 1-59.216143 15.866111L197.148719 769.851408a43.364482 43.364482 0 0 1-15.866111-59.216144l62.590221-108.403979a351.019657 351.019657 0 0 1-54.989516-92.956918H65.025048a43.350032 43.350032 0 0 1-43.350032-43.350032v-162.931094a43.350032 43.350032 0 0 1 43.350032-43.350032h120.267438a350.456107 350.456107 0 0 1 55.50249-98.281747l-59.505143-103.079151a43.350032 43.350032 0 0 1 15.866111-59.216143l141.097129-81.46916a43.364482 43.364482 0 0 1 59.216143 15.873337l58.594793 101.489649c38.090228-6.358005 77.220857-6.358005 115.311084 0l58.594793-101.489649a43.364482 43.364482 0 0 1 59.216144-15.873337l141.104353 81.46916a43.328357 43.328357 0 0 1 15.866112 59.216143l-59.512369 103.079151a350.282707 350.282707 0 0 1 55.502491 98.281747h120.267438a43.350032 43.350032 0 0 1 43.350032 43.350032v162.923869a43.342807 43.342807 0 0 1-43.342807 43.350032zM708.216694 379.852847c0-107.247979-87.249164-194.497142-194.497143-194.497142-107.255204 0-194.504367 87.249164-194.504367 194.497142s87.249164 194.497142 194.504367 194.497142c107.247979 0 194.497142-87.249164 194.497143-194.497142z"  horiz-adv-x="1024" />

    
    <glyph glyph-name="banner" unicode="&#58906;" d="M805.161 743.226H202.323c-28.904 0-49.549-20.645-49.549-49.549V86.71c0-28.904 20.645-49.549 49.549-49.549H809.29c28.904 0 49.549 20.645 49.549 49.549V689.548c0 28.904-24.774 53.678-53.678 53.678zM202.323 82.58c0 4.129 0 4.129 0 0z m602.838 4.129L611.097 293.16l-94.968-82.58-144.516 136.258L227.097 210.58l-20.645-24.775V689.548h606.967V86.71zM648.258 388.129c53.677 0 94.968 41.29 94.968 94.968 0 53.677-41.29 94.968-94.968 94.968-53.677 0-94.968-41.29-94.968-94.968 0-49.549 41.29-94.968 94.968-94.968zM119.742 623.484v49.548H57.806c-28.903 0-49.548-20.645-49.548-49.548v-466.58c0-28.904 20.645-49.55 49.548-49.55h61.936v49.55H57.806v466.58h61.936z m763.87-466.58v-49.55h66.065c28.904 0 49.549 20.646 49.549 49.55v466.58c0 28.903-20.645 49.548-49.549 49.548h-61.935v-49.548h61.935v-466.58h-66.064z"  horiz-adv-x="1032" />

    


  </font>
</defs>
</svg>
